<svg xmlns="http://www.w3.org/2000/svg" xmlns:xlink="http://www.w3.org/1999/xlink" viewBox="0 0 3382.45 3851.44"><defs><style>.cls-1,.cls-169,.cls-93{fill:none;}.cls-2{clip-path:url(#clip-path);}.cls-3{clip-path:url(#clip-path-2);}.cls-4{fill:#f3c279;}.cls-5{fill:#ec8f68;}.cls-6{fill:#323b5f;}.cls-7{fill:#f18e57;}.cls-8{fill:#f18f52;}.cls-9{fill:#de6d57;}.cls-10{fill:#f4a055;}.cls-11{fill:#f08b57;}.cls-12{fill:#f0c24b;}.cls-13{fill:#e35e62;}.cls-14{fill:#c14f68;}.cls-15{fill:#dd615c;}.cls-16{fill:#be4f6a;}.cls-17{fill:#ab516b;}.cls-18{fill:#ec6c5c;}.cls-19{fill:#d05f6a;}.cls-20{fill:#82466b;}.cls-21{fill:#f1b65d;}.cls-22{fill:#fad694;}.cls-23{fill:#f3a96b;}.cls-24{fill:#f08c5c;}.cls-25{fill:#f29752;}.cls-26{fill:#f0b960;}.cls-27{fill:#f19048;}.cls-28{fill:#a84350;}.cls-29{fill:#f18d4b;}.cls-30{fill:#eb6150;}.cls-31{fill:#f4be5b;}.cls-32{fill:#f3bf69;}.cls-33{fill:#ee7a51;}.cls-34{fill:#f08549;}.cls-35{fill:#ea584e;}.cls-36{fill:#eef6ea;}.cls-37{fill:#ea5c4d;}.cls-38{fill:#e74;}.cls-39{fill:#ef8150;}.cls-40{fill:#d0465e;}.cls-41{fill:#ed724f;}.cls-42{fill:#cc4765;}.cls-43{fill:#c83f56;}.cls-44{fill:#593e66;}.cls-45{fill:#ee7c50;}.cls-46{fill:#fcf3db;}.cls-47{fill:#753964;}.cls-48{fill:#ef834f;}.cls-49{fill:#fff9f3;}.cls-50{fill:#563661;}.cls-51{fill:#8a3565;}.cls-52{fill:#bf3a64;}.cls-53{fill:#ea5354;}.cls-54{fill:#d86668;}.cls-55{fill:#233a5f;}.cls-56{fill:#353758;}.cls-57{fill:#122f56;}.cls-58{fill:#ea984e;}.cls-59{fill:#f4be7c;}.cls-60{fill:#ee7d5b;}.cls-61{fill:#f1bd51;}.cls-62{fill:#d95768;}.cls-63{fill:#eb6c5c;}.cls-64{fill:#dc5364;}.cls-65{fill:#f08964;}.cls-66{fill:#f4ce74;}.cls-67{fill:#f18f5c;}.cls-68{fill:#f3ac57;}.cls-69{fill:#ee795f;}.cls-70{fill:#4d4167;}.cls-71{fill:#c15a66;}.cls-72{fill:#ce6260;}.cls-73{fill:#f5b754;}.cls-74{fill:#f3b754;}.cls-75{fill:#1a3f55;}.cls-76{fill:#de5365;}.cls-77{fill:#eeb36c;}.cls-78{fill:#f1b358;}.cls-79{fill:#ef835d;}.cls-80{fill:#f08755;}.cls-81{fill:#e76760;}.cls-82{fill:#f5cb6f;}.cls-83{fill:#f6b16a;}.cls-84{fill:#f8d897;}.cls-85{fill:#f5c681;}.cls-86{fill:#f1d7aa;}.cls-87{fill:#102d4c;}.cls-88{fill:#103050;}.cls-89{fill:#694269;}.cls-90{fill:#c74965;}.cls-91{fill:#e95057;}.cls-92{fill:#c5536c;}.cls-169,.cls-93{stroke:#231815;stroke-miterlimit:10;}.cls-93{stroke-width:10px;}.cls-94{fill:#dd6161;}.cls-95{fill:#223f67;}.cls-96{fill:#f1ecc0;}.cls-97{fill:#458da8;}.cls-98{fill:#311713;}.cls-99{fill:#e8ab79;}.cls-100{fill:#dae369;}.cls-101{fill:#122941;}.cls-102{fill:#0f1a2c;}.cls-103{fill:#0e2939;}.cls-104{clip-path:url(#clip-path-3);}.cls-105{fill:#fff;}.cls-106{fill:#e3754c;}.cls-107{fill:#d95756;}.cls-108{fill:#e26e53;}.cls-109{fill:#c45459;}.cls-110{fill:#c54e5b;}.cls-111{fill:#d45d53;}.cls-112{fill:#b94b5a;}.cls-113{fill:#985668;}.cls-114{fill:#a8aab7;}.cls-115{fill:#8e4b64;}.cls-116{fill:#384367;}.cls-117{fill:#15405f;}.cls-118{fill:#da784f;}.cls-119{fill:#002e48;}.cls-120{fill:#41476f;}.cls-121{fill:#28436a;}.cls-122{fill:#0a2f4f;}.cls-123{fill:#e89e4e;}.cls-124{fill:#e6cd58;}.cls-125{fill:#e7d87e;}.cls-126{fill:#f0f7fc;}.cls-127{fill:#071630;}.cls-128{fill:#0d2340;}.cls-129{fill:#337483;}.cls-130{fill:#0f233b;}.cls-131{fill:#973e4d;}.cls-132{fill:#0b1c34;}.cls-133{fill:#e2c052;}.cls-134{fill:#e5d29a;}.cls-135{clip-path:url(#clip-path-4);}.cls-136{fill:#e78831;}.cls-137{fill:#e7882e;}.cls-138{fill:#d59062;}.cls-139{fill:#d38159;}.cls-140{fill:#14192a;}.cls-141{fill:#192133;}.cls-142{fill:#0f1e31;}.cls-143{fill:#081d33;}.cls-144{fill:#233042;}.cls-145{fill:#202d2b;}.cls-146{fill:#ebd680;}.cls-147{clip-path:url(#clip-path-5);}.cls-148{fill:#df926e;}.cls-149{fill:#221721;}.cls-150{fill:#db7a33;}.cls-151{fill:#172b3b;}.cls-152{fill:#1b233b;}.cls-153{fill:#1f3241;}.cls-154{fill:#d56929;}.cls-155{fill:#de6731;}.cls-156{fill:#3f262c;}.cls-157{fill:#12425b;}.cls-158{fill:#0d2437;}.cls-159{fill:#b6bdc3;}.cls-160{fill:#2f434e;}.cls-161{fill:#17364a;}.cls-162{fill:#041930;}.cls-163{clip-path:url(#clip-path-6);}.cls-164{fill:#a6d4d8;}.cls-165{fill:#dcd0b0;}.cls-166{fill:#e9d387;}.cls-167{fill:#a16d73;}.cls-168{fill:#267280;}.cls-170{clip-path:url(#clip-path-7);}.cls-171{fill:#022237;}.cls-172{fill:#112533;}.cls-173{fill:#0d2234;}.cls-174{fill:#0a2b3d;}.cls-175{fill:#042237;}.cls-176{fill:#0a3752;}.cls-177{fill:#17536f;}.cls-178{fill:#0b334a;}.cls-179{fill:#2a8198;}.cls-180{fill:#135e77;}.cls-181{fill:#144862;}.cls-182{fill:#09354a;}.cls-183{fill:#0d4160;}.cls-184{fill:#062437;}.cls-185{fill:#142838;}.cls-186{fill:#09233b;}.cls-187{fill:#a2d3de;}.cls-188{fill:#1d4963;}.cls-189{fill:#508094;}.cls-190{fill:#051c30;}</style><clipPath id="clip-path" transform="translate(311.06 129.61)"><polygon class="cls-1" points="489.18 567.67 345.83 866.17 279.78 1642.98 359.05 2237.48 602.19 2610.86 1180.77 3257.37 1524.14 3563.41 2071.07 3061.39 2377.57 2667.7 2644.43 2255.52 2745.53 1672.13 2676.14 849.87 2588.94 564.51 2418.64 378.69 2050.05 202.98 1662.97 165.99 1330.06 167.31 953.42 268.58 489.18 567.67"/></clipPath><clipPath id="clip-path-2" transform="translate(311.06 129.61)"><polygon class="cls-1" points="489.18 567.67 338.31 879.76 274.73 1656.48 356.24 2223.2 602.19 2610.86 1215 3291.26 1524.14 3563.41 2071.07 3061.39 2377.57 2667.7 2644.43 2255.52 2745.53 1672.13 2676.14 849.87 2662.97 806.77 2588.94 564.51 2509.68 395.41 2115.99 207.81 1827.99 125.9 1447.51 128.54 953.42 268.58 489.18 567.67"/></clipPath><clipPath id="clip-path-3" transform="translate(311.06 129.61)"><path class="cls-1" d="M962.7,1090.6v151.1l-3.63,343v6.61l1,6.27s1.32,4.13,1.65,4.63,1.82,3.46,2.15,4,1.82,2.31,2.15,2.81,2.14,1.81,2.31,2.31a10.77,10.77,0,0,0,3.47,3c1.15.5,6.11,2.15,6.6,2.31s7.1.5,8.75,1.32,16.52-.16,17.18,0,21.14,0,21.63.34,167.29,0,167.29,0l299.23.14,539.67,4,127.15.94,1.87-.22,1.05-.83.27-1.32a5.66,5.66,0,0,0,0-1.38c-.11-.27.05-11.28.05-11.28V1093.74l.23-2-.44-1.1-1-1a16.15,16.15,0,0,1-2.31,0c-.17-.11-6.55.11-6.77,0s-102.61.33-102.61.33l-1054.4-.36-29.5.2-1,0-.79.12s-.47.12-.47.12l-.49.31Z"/></clipPath><clipPath id="clip-path-4" transform="translate(311.06 129.61)"><path class="cls-1" d="M1226,2220.49c-34.34,12.56-50.78,17.44-54.12,19.53s-29.71,5.58-34.36,8.37-12.58,18.13-17.2,33.48,1.32,27.89,8.58,46.73,21.14,60,25.77,70.44,19.15,21.62,23.77,22.32,71.34-2.79,84.56,0,70.67,10.46,81.24,11.15,69.36,4.19,83.89,0,454.44-14.05,454.44-14.05l62.77-54.65s.73-43.67,4.33-46.19,8.89-43.33,8.89-43.33l-17.18-29.39s-40.95-14.64-45.58-17.43-29.72-21.47-29.72-21.47Z"/></clipPath><clipPath id="clip-path-5" transform="translate(311.06 129.61)"><path class="cls-1" d="M1031.49,2060.7c-2.65,11.23-11.23,45.58-13.88,53.5s-4,21.14-4.62,27.74.66,15.2,0,20.48,2.64,15.19,6,17.84,9.9,11.23,19.81,14.53,26.42,2,41,0,22.46-7.27,42.93-5.29,37.65.67,50.86,3.31,58.13-3.31,62.76-2.64,745.1-4.63,747.08-5.29,45.58-7.27,50.2-4,9.91,7.26,14.53,11.23,7.93,6.6,13.21,7.92,13.22-1.32,15.86,0,11.23-4,12.55-9.24,4-12.55,3.3-17.84-2.64-30.38-4.62-34.35-8.59-40.29-9.25-44.92-4-33-4-33l-21.8-5.95h-41.62s-10.57,1.54-11.34,2-12.11,16-12.66,20.48a53.58,53.58,0,0,0-.44,10.46,175.91,175.91,0,0,1-1.21,18.39c-.44,3.63.55,9.13.33,9.68s-14.09,1.43-14.09,1.43-10.57-.44-11.23-.44-13.32.55-15.63.44-24-.88-24-.88l-799.27.55-2.53-7s-1-14.2-1.1-15.74.33-11.23.22-13a15.67,15.67,0,0,0-1.54-5.39c-1-2.42-2.86-7.38-4.19-10.46s-1.43-4.73-4.29-8-10.24-6.6-13.65-7.48-11-1.54-15-1.76-12.11-1-16.41,0-15.3,3.63-18.49,4.62-11.23,4-11.23,4Z"/></clipPath><clipPath id="clip-path-6" transform="translate(311.06 129.61)"><path class="cls-1" d="M1183,1792.29s104.81-69.57,124.19-70,93.35,1.32,95.56,0,382.23-.08,382.23-.08,45.36,8,55,14.17,26.86,15,29.5,16.73,25.11,20.26,27.31,22.46,19.37,10.57,21.58,18.5,3.52,56.8,3.08,58.56-6.61,168.22-6.61,169.55-6.16,50.2-6.6,53.72-5.29,29.06-5.73,31.27-37.87,208.29-37.87,208.29-20.26,18.94-22,16.29-591.85-2.2-591.85-2.2l-27.3-81.91s-4-26.42-5.73-33.46-.88-36.56-4-44.92-5.29-25.54-7.49-31.27-2.64-16.4-3.52-21.19-6.17-36.06-7-38.7S1183,1990,1183,1990Z"/></clipPath><clipPath id="clip-path-7" transform="translate(311.06 129.61)"><path class="cls-1" d="M1323.89,1738.13c-3.52-.44-65.17,26.67-67.82,27.65s-23.34,11.1-26.86,15.06-20.7,18.06-25.1,24.22-11,13.22-12.33,18.5,3.08,50.2,3.08,58.57-2.69,26.86-3.33,39.19-2.39,45.36-2.83,51.08,9.24,68.26,10.13,72.22,3.52,14.54,5.28,26,4.4,20.25,5.72,29.06,5.73,23.34,5.73,29.94,36.55,197.46,36.55,197.46,20.7,6,26.42,8.64,73.54,7.48,75.75,7.48,10.56,3.09,18,4.85,42.72,9.24,49.76,9.68,32.15-1.32,43.6,0,34.35-1.61,43.15.08,52,1.07,63.42.28,27.74-3,39.63-2.56,37,4.94,45.36,3.35,24.66-2.47,36.11-2.91,48.88-.88,57.69-4.84,19.37-10.57,29.5-12.33,34.79-4.85,42.28-5.73,10.12,0,18.05-4,17.18-14.09,22-23.34,48-321.91,48-323.23V1813.87L1877,1780.4s-26.42-14.53-33-18.93-63.85-23.79-65.17-23.35S1323.89,1738.13,1323.89,1738.13Z"/></clipPath></defs><g id="图层_12" data-name="图层 12"><g class="cls-2"><g class="cls-3"><polygon class="cls-4" points="1757.69 217.98 1988.38 109.65 2166.73 363.3 1757.69 217.98"/><path class="cls-5" d="M1594.09-4.1c63.41-21.14,311.78-125.51,311.78-125.51l-88.51,347.45Z" transform="translate(311.06 129.61)"/><path class="cls-6" d="M1890-54.7l-97.76,248.52,182.08-31.47s64.58-109.23,60.81-123.76S1890-54.7,1890-54.7Z" transform="translate(311.06 129.61)"/><path class="cls-7" d="M640.7,111S418.28,281.8,413,382.59s17.14,275.12,105,298.93,439.24,63.35,461.73-19.83S1013.44,435.82,996,370.43,640.7,111,640.7,111Z" transform="translate(311.06 129.61)"/><path class="cls-8" d="M1504.91,838.26c-5.94-2.14-378.64,29.83-401.35,85.18s-87,124.75-73.25,165.85,216,225.3,340.13,249.79,582.33,35.63,623.94,37.82,129.89-147.28,117.53-209.85-119.84-224.93-143.45-245.23S1504.91,838.26,1504.91,838.26Z" transform="translate(311.06 129.61)"/><path class="cls-9" d="M2794.74,1924c-81-13.87-228.74-23.59-228.74-23.59s-40.68,134-38.62,141.24,1.6,32,20.13,54.76,53.19,23.78,116.64,63.41,76.51,40.89,88.82,49l12.3,8.11Z" transform="translate(311.06 129.61)"/><path class="cls-10" d="M309.39,1233.17c21.4,4.23,206.68,53.77,260.19,41.88s333.91-128.76,460.73-185.76,174.39-69.12,245.73-88.82,218.66-53.57,288.17-49,236,51.12,257.77,61,288.33,113,317.07,127.82,329.94,76.11,338.86,79.17,349.76-525,349.76-525L1603,511.13S806.38,659.75,795,661.73,166.31,957,166.31,957Z" transform="translate(311.06 129.61)"/><polygon class="cls-11" points="1032.51 1020.03 1003.5 1142.09 1136.27 1060.11 1032.51 1020.03"/><polygon class="cls-12" points="1379.86 1053.05 1209.59 761.62 1078.8 866.87 1379.86 1053.05"/><polygon class="cls-13" points="1193.74 1148.04 1379.86 1053.05 1064.93 849.87 1032.51 1020.03 1136.27 1060.11 1193.74 1148.04"/><polygon class="cls-14" points="1031.24 1025.17 1074.41 849.87 829.11 925.93 1031.24 1025.17"/><polygon class="cls-15" points="2776.89 856.32 2703.76 662.53 2489.84 875.56 2776.89 856.32"/><polygon class="cls-16" points="2740.42 674.42 2686.91 797.26 2803.83 957.8 2998.03 888.79 2931.64 662.53 2740.42 674.42"/><polygon class="cls-17" points="2720.07 694.24 2489.84 849.87 2430.3 612.06 2720.07 694.24"/><path class="cls-18" d="M1055.08,846c7.93,2,179.34-18.76,225.91-33.62s273.16-132.77,283.22-135.75,137.88-15.9,148.78-8.94S1787.3,756,1819,777.72s111,95.94,131.78,104.42,57.47,18.38,57.47,18.38h17.83s33.74-175.24,33.22-180.26,71.85-142.51,73.79-158.6,0-134.75-22.79-149.62-603.41-25.76-629.17-29.23-659.53,34.92-664.08,32.57,4.19,261.21,4.19,261.21,97.76,100.12,103.37,107S1055.08,846,1055.08,846Z" transform="translate(311.06 129.61)"/><polygon class="cls-19" points="797.41 1142.09 906.4 1142.09 864.06 1055.15 813.26 888.79 694.5 951.85 779.57 1142.09 797.41 1142.09"/><polygon class="cls-20" points="578.95 967.86 710.21 1007.2 829.11 925.93 672.56 819.26 578.95 967.86"/><path class="cls-21" d="M3013,1211s-2522-236.12-2590-198.47-744.45,294.14-733.88,358.78,74,274,269.51,319.93,1183.9,18.44,1494.7,40.12,956.35,16.4,1173.47,21.66,439.06-165.15,444.34-246.4S3013,1211,3013,1211Z" transform="translate(311.06 129.61)"/><polygon class="cls-22" points="584.71 1594.57 3382.14 1594.57 3112.74 2010.06 1255.41 2030.05 368.4 1698.59 584.71 1594.57"/><path class="cls-23" d="M665.36,1782.46l-150-213.13L376,1587.82l-229.21,47.56s-50.21,65.48-44.92,68.08S665.36,1782.46,665.36,1782.46Z" transform="translate(311.06 129.61)"/><path class="cls-24" d="M413,1609.52l-2.65-26.85-96.44-51-100.4-25.11s-23.12,144.75-21.8,149,145.32,35.62,145.32,35.62Z" transform="translate(311.06 129.61)"/><path class="cls-25" d="M457.28,1729.84c-2-3.3-42.43-147.17-42.43-147.17L225.43,1756.26Z" transform="translate(311.06 129.61)"/><polyline class="cls-26" points="1164.23 1791.97 1212.89 1814.53 1235.68 1898.21 864.06 1836.99 1027.28 1728.49 1164.23 1791.97"/><path class="cls-27" d="M1065,1841.25c-4.62-7.7-17.83-39.65-34.35-51.42s-70-32.88-74-36.86-17.16.65-23.77,7.26-33,33.48-42.95,46.13-15.19,48.32-9.9,51,124.18,23.12,124.18,23.12Z" transform="translate(311.06 129.61)"/><path class="cls-28" d="M979.78,1846.1c-.66-2.64-64.73-154.91-64.73-154.91L869.47,1804v53.29Z" transform="translate(311.06 129.61)"/><path class="cls-29" d="M898.53,1820.34c-2,.66-80.59-182.2-80.59-182.2l-66.05,30.93s-85.87-4.62-89.84-4-66.71.66-70.67.66-78,16.51-83.89,18.49S380,1744.76,371.41,1751.5s-158.53,92-163.81,97.24,171.08,18.57,201.46,19.19,297.91-10.6,315.75-8S898.53,1820.34,898.53,1820.34Z" transform="translate(311.06 129.61)"/><path class="cls-30" d="M810.68,1864.59C807.38,1862,705,1708.7,705,1708.7l-44.92,56.15L311.3,1682.94s-58.79-62.75-61.43-62.75-29.72-11.89-34.35-10.57-132.11,70-139.37,81.57-25.1,63.75-16.52,77S87.38,1872.3,96,1877s36.33-54.71,36.33-54.71L734.05,1825Z" transform="translate(311.06 129.61)"/><polygon class="cls-31" points="502.75 1952.19 2792.1 1959.87 2798.53 2780.13 246.51 2807.97 502.75 1952.19"/><path class="cls-32" d="M207.48,2019.74s-64,6.92,132.23-13.67,335.54-54.94,410.52-29.84,269.07,95.14,269.07,95.14,891.56-62.93,907.58-51.63,517.79,13.77,566.36,22,234.36,68,274,148.57,79.26,268.66,79.26,297.48-56.42,132.59-246.19,174.62-1593.18,90.57-1715.64,110.35S50,2729.88,8.77,2650.52,207.48,2019.74,207.48,2019.74Z" transform="translate(311.06 129.61)"/><path class="cls-33" d="M302.36,2290.07c31.4-7.35,55.18,43.09,215.69-39.6s228.79-132.39,297.7-139.24,119.77,25.1,262.78,59.45,58.43-15.69,610.68-25.57,607.38,16.42,737.17,50.42,449.18-8.57,525.8,73,128.15,274.2,48.88,382S2601.43,2825.26,2473,2894.17s-533.77,126.9-751.82,132.66-824.58-24.33-895.92-147.08-397-272.7-483.85-292.18S302.36,2290.07,302.36,2290.07Z" transform="translate(311.06 129.61)"/><path class="cls-34" d="M287.19,2385.68c44.59,1.08,170.42,14.78,231.86,0s277.43-108.56,285.35-117.15,60.27-47.55,140-53.22,584.93,121.37,610.89,131.55,648.93,61.26,651.05,62,377,125.16,411.51,168,77.27,270.87,22.2,424.36S2455.51,3454.29,2225,3562.08s-2335.08-193.41-2430.2-270.7-15.85-360.56,71.34-434.92S287.19,2385.68,287.19,2385.68Z" transform="translate(311.06 129.61)"/><path class="cls-35" d="M1010.49,2562.84c13.88-2.69,64.59-13.56,98.68-10.1s68.77,1,98.5,7.18,48.55,14.7,71.34,16.88,89.17-13,116.92-9.87,290.31-4.25,306.16-4,34.68-5.17,59.45,0,199.16,12.71,220,13.9,102.06-19.93,149.62-9.87,66.38,20.64,66.38,20.64-84.22,12.22-88.18,14.2,60.44,4.95,88.18,4.95,73.33-3,97.1-5.94,41.05-19.62,66.11-18.73,20.1-25.53,39.91,5.52,24.77,34,29.73,48.87-34.68,36.52-34.68,42.54S225.76,2938.35,225.76,2938.35l225.91-367.3s258.6-22.7,266.53-22.25,79.27,14,85.21,18.13,39.64,2.82,46.57,0,48.55-21.61,71.34-14.19,75.3,12.79,89.17,10.1" transform="translate(311.06 129.61)"/><path class="cls-36" d="M1236.4,2599.79c4-1.14-4,3.54-11.6,7.77-5.71,3.18-11.19,6.1-11.19,6.1s32.56,30.83,52.38,30.16,166.79,31.82,191.59,34.55,153.36,8.48,165.25,6.56,66.38-71.33,66.38-71.33l-36.66-14s-41.61-6.76-45.58-6.76-51.73-4-51.73-4-65-3-70,0-155.66,6.93-158.63,7.92-60.58,6-60.58,6Z" transform="translate(311.06 129.61)"/><path class="cls-37" d="M2390.6,2736.14c-34,47.07-102.82,124.43-166.34,155-82.24,39.58-2009.4-46.9-2009.4-46.9l329.95-201.85s298.24,1,325,4,413.17-1,427-4,240.55-18.18,274.35-18.5,137.26-11.22,173.71-10.23,204.9,10.55,270.29,10.23,336.88,24.57,349.76,23.52,58.46,27.83,45.58,57c-2.93,6.63-9.92,17.87-19.93,31.74" transform="translate(311.06 129.61)"/><path class="cls-38" d="M2171.41,2665.84H2015.52s-162.49,80.59-166.46,83.23-66,63.74-35.67,76.62,323.71,28.84,331.18,30.72,195.94-50.53,201.23-54.5-68.7-83.23-68.7-83.23l-71.34-2.64L2145,2698.87Z" transform="translate(311.06 129.61)"/><path class="cls-39" d="M600.62,2743.79c19.82-4,17.18-71.34,17.18-71.34l88.51-6.61H2022.13l-15.86,15.85-5.28,14.54L1890,2757l277.43,18.49,92.32-31.87s68.85,136.24,68.85,140.2S307.34,3116.44,307.34,3116.44Z" transform="translate(311.06 129.61)"/><path class="cls-40" d="M439.45,2757H780.29l120.22-62.09h322.35s165.14,10.56,192.88,18.49,303.86-15.85,313.1-18.49,179.67-6.61,188.26-6.61,82.57,1.32,82.57,0S1890,2757,1890,2757s26.42,2.64,41,0,140,4,170.42,7.92,79.27-13.21,93.8-15.85,66.06-10.57,84.55-1.32,78,29.06,80.59,40.95-9.25,166.46-15.85,174.39S333.25,2857,333.25,2857Z" transform="translate(311.06 129.61)"/><path class="cls-41" d="M339.71,2825.69h737.83s181-7.92,192.88-7.92,363.3-5.29,376.52-5.29,166.45,13.21,166.45,13.21,66.06,12.88,79.27,12.88,128.15-9.24,144-13,128.57-18.33,152.14-13.05,67.16,41,73.77,54.17-4,289.32-25.1,315.74S263.74,3424.15,240,3421.51,339.71,2825.69,339.71,2825.69Z" transform="translate(311.06 129.61)"/><path class="cls-42" d="M498.9,2878.54c4-2.64,228.55-11.89,228.55-11.89L919,2838.57l82.56,10.67v95.35s-448.51,100.41-467,99.09S498.9,2878.54,498.9,2878.54Z" transform="translate(311.06 129.61)"/><path class="cls-43" d="M736,2989.59l274.45-145.07,247.71,11.89s189,20.81,195.07,24.77,373.67-42.61,373.67-42.61H2078.6l99.09,27.75-90.17,109.77S2064.73,3113,2065.72,3116,736,2989.59,736,2989.59Z" transform="translate(311.06 129.61)"/><polygon class="cls-44" points="2228.16 3078.16 2384.71 2968.18 2554.14 3010.79 2480.82 3156.44 2228.16 3078.16"/><path class="cls-45" d="M476.44,3036.74s139.71-48.72,146.64-47.15,97.1-12.3,104-12.3,170.42,13.7,175.37,12.3,401.29,4.54,401.29,4.54l53.66,3s319.88-8.14,323.84-7.56,108-5.36,119.89-6.35,183.31-5.95,183.31-5.95,50.59-4.72,68.39,4.58,48.52,32.08,48.52,45-24.77,113-35.67,128.81S755.85,3311.2,755.85,3311.2Z" transform="translate(311.06 129.61)"/><path class="cls-46" d="M1192.81,3047.64l112-42.61s21.8-5.94,24.77-5.94,108.56-7.93,108.56-7.93,48,1,54.93,0,31.7-3,45.57,0,58.46,8.92,62.43,9.91,61,19.24,68.14,17.55,22,4.55,28,8.21,14.86,20.81,15.85,33.69,8.92,37.65-62.42,54.5-37.65,22.78-190.24,21.79-222.94-5-233.84-6.95-28.73-29.71-28.73-36.64S1192.81,3047.64,1192.81,3047.64Z" transform="translate(311.06 129.61)"/><path class="cls-47" d="M642.9,3129.86l436.95-84.2,122.82-9.91,849.18-8.92s-31.7,44.59-33.69,59.45-3,84.22-14.86,113.95S1965.65,3313.18,1933,3334s-725.38,164.47-730.28,164.47S774,3275.83,761,3258.84,642.9,3129.86,642.9,3129.86Z" transform="translate(311.06 129.61)"/><path class="cls-48" d="M339.71,3172.48s237.79-43.59,241.76-42.6,201.13,20.8,218,34.68,296.26,36.66,299.23,35.67c1.63-.55,65.12-.48,121.87-.32,46.34.14,88.18.35,88.18.35s91.16-4,102.06-6,185.28,1,199.15,2,94.13,8.92,94.13,8.92,99.09-14.86,116.92-14.86,93.86-11.89,105.89-6.94,35.8,9.91,40.75,17.84-17.83,137.72-32.69,156.55S597.32,3562.08,597.32,3562.08Z" transform="translate(311.06 129.61)"/><path class="cls-49" d="M1226.49,3245.06c2,3.33,123.18,21.33,131,24.66s207.46,8.66,207.46,8.66l81.7-21.32,20.81-29.33s4-10.66,0-12.66-7.92-19.33-24.77-22.66-144.66-15.33-174.38-14-222.94,10-232.85,11.33-32.49,32-32.49,32-.57,9.76,0,9.73,26.55,8.93,26.55,8.93Z" transform="translate(311.06 129.61)"/><path class="cls-50" d="M422.94,3286.43c14.86,0,798.6-66.39,798.6-66.39s213.16,14.87,216.56,16.85,107.44,0,112.39-2,149.62-18.83,161.51-18.83,188.26,8.92,203.12,11.89S2033,3252.74,2038,3256.7s27.74,232.85,27.74,241.76-70.34,149.62-127.81,163.49S455.63,3357.77,455.63,3357.77Z" transform="translate(311.06 129.61)"/><path class="cls-51" d="M884.66,3357.77c8.92,1,282.39,44.57,282.39,44.57l643-5.93s30.72,279.41,22.79,283.38-674.75,52.51-720.33,32.69-219-350.75-227.89-349.76S884.66,3357.77,884.66,3357.77Z" transform="translate(311.06 129.61)"/><path class="cls-52" d="M884.66,3485.58h568.73l225.91-89.17s309.14,37.65,312.11,39.63-43.59,213-70.35,219-751,22.78-776.8,12.88S884.66,3485.58,884.66,3485.58Z" transform="translate(311.06 129.61)"/><path class="cls-53" d="M1263.16,3571.79l545.94-169.44s99.08-2,102.06,37.66,48.55,158.53-30.72,180.33-192.22,60.44-266.53,86.2-381.47,16.84-406.24-10.9S1263.16,3571.79,1263.16,3571.79Z" transform="translate(311.06 129.61)"/><path class="cls-54" d="M2533.48,1955.11,2392,1939.9s-44.63-4.27-44.73,15.21,66.22,93.78,66.22,93.78l-36.6,54.49s32.57,36.89,36.6,41.73,12.94,34.57,12.94,50.42,2.84,31.71,4.4,45.58,10,9.26,15.19,27.42,1.94,9.63,5.05,26.77a228.21,228.21,0,0,1,3.29,44.65c-.18,12.13.85,22.73,2.81,27.83s-.34,10.88,3.29,17.9-2.33,8.75,4.62,19.22,1,12.53,7.92,20.5,9.24,26.75,8.09,32.7,4.74,12.71,1.8,29.64-13.53,9.5-1.8,31.05,49.37,51.69,49.87,44.05,6.61-40.34,2.57-67.09-17.07-86.81-15.51-121.68,23.84-324.19,23.84-324.19,5.47-38-.48-44.24S2533.48,1955.11,2533.48,1955.11Z" transform="translate(311.06 129.61)"/><path class="cls-55" d="M2307,2024.12c1.5,0,1.84-5.29,18.52,0s20.57,12.56,20.57,12.56-52.92-2.29-57.64,0-67.51,11.22-67.51,11.22,50.8,8.67,55.31,6.81,68.45-1.11,78.09,0,58,6.13,48.7,7.58-118.86,15.33-137.42,20.28,6.22-5,35,0,48.4-8,59.87,1.43,2.55,23.18-18.26,27.23-75.3,4-94.12,11-40.9,9.19-6.58,13,59.09-.86,95.75,0,52.51-9.7,42.61,1.52-77.21,29.05-111.93,36-87.23,2-34.72,6.94,100-6.94,130.27,0,66.33,13.27,29.46,24.47-46.83,11.16-46.83,11.16,42.66,6.11,39.69,5.55-64,25.2-68.15,27.18-32.47,20.49-32.47,20.49l78.3,16.17s43,15.54,50,16.2,35.08,2.63,30.45,6.59S2402.1,2336.73,2392,2340s-77.91,19-82.67,19,109.18,15.09,109.18,15.09l37.63,11.61-114.92,51.76,99.44,26.37,36.58-11.24-16.78,31.29s-49.47,13.87-60.08,17.83-23.49,0-23.49,0l83.57,21.55,22.43,25.55L2392,2566.93s71.1,18.32,77,20.64,27.74,1.32,28.73,5.28-14.39,31-14.39,31L2518,2548.8s-25.93-41.16-29-44.13,4.92-39.18.49-50.54S2472,2419,2470,2408.83s2-23.67,1-34.76-6.93-17.25-5.94-38.94,4-62.32,4-62.32l-8.58-17.83,5.61-18.76s-8.59-16.34-13.21-13.65-12.2-1.71-12.2-1.71l24.42-16.71s6.93-1.69,4.95-8.62-28.15-23.78-33.4-24.77,8.84-8.92,12.2-8.92,18.23-6.93,18.23-6.93-19.6-7.71-27.14-9.8-22.4-18.94-22.4-18.94,8.62-14,23.14-14.94a251.88,251.88,0,0,1,28.38,0s-19.6-15.77-29.12-16.77-53-12.88-30.75-21.79,37.8-15.11,41.9-18,4.68-17.35-14.44-18-44.87-7.49-48.83-7.47,5.15-23.14,5.15-23.14Z" transform="translate(311.06 129.61)"/><path class="cls-56" d="M2508.62,1946.83l-16.95,14.61L2473,1981.51s28.74,34.84,35.67,38.23-20.85,17.73-15.38,22,14.65,19.15,16.5,20.6-22.6,15.33-22.6,15.33-3.58,17.84,12.42,20.81,29.53-19.82,25.74,0-42.12,34.18-44.26,40.37,22.83,6.31,22.83,6.31-19.39,21.68-16.73,24.66,11,1.67,16.73,11.73-2.6,20.87-8.34,27.36,7.55,1.47,8.34,6.45-21.68,21.83-22.83,34.71,1.61,14.87,10.63,29.73,13.4,18.93,12.2,35.23,8.13,11.85,0,25-13.44,10.08-16.73,19-17.21,12.14-3.81,19.46,18.36-2.58,26.28,15.25-5.74,43.75-5.74,43.75,3.76-2.69,6.73,12-10.89,12.66,0,31.49,14.16,17.83,26.9,22.79,23.55,11.39,28.55,7.18,16.27-.25,13.11-13.13-19-12.33-19-52.24,4.7-69.93,6.81-77.71,10.32-27.46,9.21-32.65,14.36-5.84,6.1-14.26-22.12-21.9-22.12-25.57,5,.3,9.92-21.5,8.48-25.76,5.23-29.72-29-2.35-19.12-14.55,22.25-30,22-34,1.79-13.87-8.14-18.83-8.9-4.95,0-15.85,17.71-13.38,11.33-22-19.36-2.72-15.35-19.56,9.41-17.84,12.16-29.73,4.08-23.24-2-26-5.09-17.24-6.1-26.84-12.9-27.43-10.91-40.31,6.85-27.74,6.89-30.71,2.77-16.85.91-18.83-63.59-3-67.4,0S2508.62,1946.83,2508.62,1946.83Z" transform="translate(311.06 129.61)"/><path class="cls-57" d="M2446,1955.11s95-16,98.13-15.61,61.5.25,75.93,0,128.7,6.63,144.56,7.81,78.6-4.92,83.23-7.81,3.12-10.16,25.67-27.34,42.36-27,54.91-44.22,23.78-26.68,23.78-26.68-95.87-7.7-122.25-5.72-25.93,3.31-35.4-.33-17.39-10.9-32.59-16.18-20.48-13.61-31.7-15-19.73,1.56-32.66,2.32-61.8.84-64.44,2.45-39,.37-45.58,0-16.69-6.75-21.56-6.53-2.88-18.71-10.15-19.82S2499.11,1766,2493,1767s-33.61,31.73-33.61,31.73l3.3,16.84-164.47-6.73s-43.6,14.17-49.54,26.06,15.93,66.05,19.19,70.68,78.84,34,78.84,34Z" transform="translate(311.06 129.61)"/><path class="cls-58" d="M2102.05,1655.57s3.31,18.85-27.08,20.8-71.34,6.63-83.23,7.59-17.17-12.25-24.44,17.48-37.65,33.69-44.92,70.68-19.15,70.67,9.25,84.55,81.91,31,119.56,32.36,65.45,31.49,110.67-12,58.24-98.92,49.09-153.11S2102.05,1655.57,2102.05,1655.57Z" transform="translate(311.06 129.61)"/><path class="cls-59" d="M1213.61,1629.44s70.68,78.56,94.46,107.64,61.43,76.65,68,87.88,25.63,22.6,37.65,29.06,172.88-107.19,178.92-112.29,33.78-36.5,47-49,52.84-53.41,48.88-63.32-119.92-51.88-119.92-51.88-254.61-27.39-267.16-24.75S1218.24,1630.1,1213.61,1629.44Z" transform="translate(311.06 129.61)"/><polygon class="cls-60" points="1037.19 498.06 1221.48 593.17 1235.68 815.24 1078.8 866.87 976.42 470.31 1037.19 498.06"/><polygon class="cls-61" points="886.58 682.35 1019.35 636.61 1078.8 866.87 886.58 682.35"/><polygon class="cls-62" points="829.11 925.93 1106.05 860.54 864.06 668.59 829.11 925.93"/><polygon class="cls-63" points="652.42 809.5 829.11 925.93 872.71 595.16 652.42 809.5"/><polygon class="cls-64" points="1221.48 593.17 2103.32 309.8 1607.9 163.16 1162.03 367.27 1060.97 470.31 1003.5 529.76 1221.48 593.17"/><path class="cls-65" d="M2020.15,281.25l158.63-126.82S2036,59.31,2032,53.36s-119,91.35-119,91.35L1792.26,190.1,1994.38,311Z" transform="translate(311.06 129.61)"/><polygon class="cls-66" points="2536.01 353.39 2428.17 420.77 2428.17 646.68 2536.01 353.39"/><polygon class="cls-67" points="2517.35 299.89 2328.6 383.06 2452.38 440.59 2517.35 299.89"/><polygon class="cls-68" points="2444.16 387.08 2428.17 646.68 2296.58 378.17 2444.16 387.08"/><polygon class="cls-69" points="2682.35 440.59 2428.17 646.68 2536.01 353.39 2682.35 440.59"/><polygon class="cls-70" points="2920.76 761.62 2428.17 636.61 2733.22 378.17 2998.03 692.26 2920.76 761.62"/><polygon class="cls-71" points="2464.92 616.88 2210.32 836.92 2482.09 836.92 2464.92 616.88"/><polygon class="cls-72" points="2210.32 821.13 2341.11 1003.16 2536.01 797.26 2210.32 821.13"/><polygon class="cls-73" points="2477.62 1153.02 2296.58 1154.19 2346.2 975.57 2346.2 1015.21 2472.94 1121.37 2477.62 1153.02"/><path class="cls-74" d="M692.44,1012.48c7.93,3,190.24,5.95,190.24,5.95L825.21,930.5Z" transform="translate(311.06 129.61)"/><path class="cls-75" d="M1393.72,948l14.1-15.41s12.33-.6,13.65-2.06,6.16,0,6.16,0L1424.55,948a57.07,57.07,0,0,1,5.72,5.72c3.09,3.53,15,13.22,15.86,16.3s.44,7.92,0,13.65.51,37,.51,37l-19.45-25.54-11.45-15.41s-5.17-8.68-5.67-10.73-3.13-8.21-4.46-8.21-17.17.88-20.69,1.32-18.06,6.61-22.46,7.93-9.69,4.1-11.89,4.47-12.33.07-14.09,0-10.57-4.47-14.1-4.47-9.24-.44-10.56-.44-11.89-2.2-11.89-2.2-13.66-.89-16.74,0-13.65,1.32-13.65,1.32l45.36-17.22,23.34-3.92c2.64-.44,36.11-.44,36.11-.44Z" transform="translate(311.06 129.61)"/><path class="cls-75" d="M1080.18,1081l44.92-9.25s15,3.53,21.14,4.63,16.73,5.5,18.93,7.26,22,0,26.43,0,9.24-.63,13.21.79,7.93,2.81,11,7.4,16.29,15.15,19.81,17.35,3.53-8.8,3.08-10.57-5.72-14.09-5.72-14.09-6.61-10.13-7.93-10.57-26,1.33-26,1.33l-8.37-3.53s-7-8.36-8.36-10.13-3.52-5.72-5.29-5.72-8.36-3.08-11.89,0-29.5,3.52-33,3.52-22.9,5.73-26.87,7.49S1080.18,1081,1080.18,1081Z" transform="translate(311.06 129.61)"/><polygon class="cls-76" points="1193.74 595.16 2317.33 593.17 2428.17 646.68 2347.06 389.06 2103.32 309.8 1631.68 339.52 1193.74 595.16"/><polygon class="cls-4" points="1757.69 217.98 1988.38 109.65 2166.73 363.3 1757.69 217.98"/><path class="cls-5" d="M1594.09-4.1c63.41-21.14,311.78-125.51,311.78-125.51l-88.51,347.45Z" transform="translate(311.06 129.61)"/><path class="cls-6" d="M1890-54.7l-97.76,248.52,182.08-31.47s64.58-109.23,60.81-123.76S1890-54.7,1890-54.7Z" transform="translate(311.06 129.61)"/><path class="cls-7" d="M640.7,111S418.28,281.8,413,382.59s17.14,275.12,105,298.93,439.24,63.35,461.73-19.83S1013.44,435.82,996,370.43,640.7,111,640.7,111Z" transform="translate(311.06 129.61)"/><path class="cls-8" d="M1504.91,838.26c-5.94-2.14-378.64,29.83-401.35,85.18s-87,124.75-73.25,165.85,216,225.3,340.13,249.79,582.33,35.63,623.94,37.82,129.89-147.28,117.53-209.85-119.84-224.93-143.45-245.23S1504.91,838.26,1504.91,838.26Z" transform="translate(311.06 129.61)"/><path class="cls-9" d="M2794.74,1924c-81-13.87-228.74-23.59-228.74-23.59s-40.68,134-38.62,141.24,1.6,32,20.13,54.76,53.19,23.78,116.64,63.41,76.51,40.89,88.82,49l12.3,8.11Z" transform="translate(311.06 129.61)"/><path class="cls-10" d="M309.39,1233.17c21.4,4.23,206.68,53.77,260.19,41.88s333.91-128.76,460.73-185.76,174.39-69.12,245.73-88.82,218.66-53.57,288.17-49,236,51.12,257.77,61,288.33,113,317.07,127.82,329.94,76.11,338.86,79.17,349.76-525,349.76-525L1603,511.13S806.38,659.75,795,661.73,166.31,957,166.31,957Z" transform="translate(311.06 129.61)"/><polygon class="cls-11" points="1032.51 1020.03 1003.5 1142.09 1136.27 1060.11 1032.51 1020.03"/><polygon class="cls-12" points="1379.86 1053.05 1209.59 761.62 1078.8 866.87 1379.86 1053.05"/><polygon class="cls-13" points="1193.74 1148.04 1379.86 1053.05 1064.93 849.87 1032.51 1020.03 1136.27 1060.11 1193.74 1148.04"/><polygon class="cls-14" points="1031.24 1025.17 1074.41 849.87 829.11 925.93 1031.24 1025.17"/><polygon class="cls-15" points="2776.89 856.32 2703.76 662.53 2489.84 875.56 2776.89 856.32"/><polygon class="cls-16" points="2740.42 674.42 2686.91 797.26 2803.83 957.8 2998.03 888.79 2931.64 662.53 2740.42 674.42"/><polygon class="cls-17" points="2720.07 694.24 2489.84 849.87 2430.3 612.06 2720.07 694.24"/><path class="cls-18" d="M1055.08,846c7.93,2,179.34-18.76,225.91-33.62s273.16-132.77,283.22-135.75,137.88-15.9,148.78-8.94S1787.3,756,1819,777.72s111,95.94,131.78,104.42,57.47,18.38,57.47,18.38h17.83s33.74-175.24,33.22-180.26,71.85-142.51,73.79-158.6,0-134.75-22.79-149.62-603.41-25.76-629.17-29.23-659.53,34.92-664.08,32.57,4.19,261.21,4.19,261.21,97.76,100.12,103.37,107S1055.08,846,1055.08,846Z" transform="translate(311.06 129.61)"/><polygon class="cls-19" points="797.41 1142.09 906.4 1142.09 864.06 1055.15 813.26 888.79 694.5 951.85 779.57 1142.09 797.41 1142.09"/><polygon class="cls-20" points="578.95 967.86 710.21 1007.2 829.11 925.93 672.56 819.26 578.95 967.86"/><path class="cls-21" d="M3013,1211s-2522-236.12-2590-198.47-744.45,294.14-733.88,358.78,74,274,269.51,319.93,1183.9,18.44,1494.7,40.12,956.35,16.4,1173.47,21.66,439.06-165.15,444.34-246.4S3013,1211,3013,1211Z" transform="translate(311.06 129.61)"/><polygon class="cls-22" points="584.71 1594.57 3382.14 1594.57 3112.74 2010.06 1255.41 2030.05 368.4 1698.59 584.71 1594.57"/><path class="cls-23" d="M665.36,1782.46l-150-213.13L376,1587.82l-229.21,47.56s-50.21,65.48-44.92,68.08S665.36,1782.46,665.36,1782.46Z" transform="translate(311.06 129.61)"/><path class="cls-24" d="M413,1609.52l-2.65-26.85-96.44-51-100.4-25.11s-23.12,144.75-21.8,149,145.32,35.62,145.32,35.62Z" transform="translate(311.06 129.61)"/><path class="cls-25" d="M457.28,1729.84c-2-3.3-42.43-147.17-42.43-147.17L225.43,1756.26Z" transform="translate(311.06 129.61)"/><polyline class="cls-26" points="1164.23 1791.97 1212.89 1814.53 1235.68 1898.21 864.06 1836.99 1027.28 1728.49 1164.23 1791.97"/><path class="cls-27" d="M1065,1841.25c-4.62-7.7-17.83-39.65-34.35-51.42s-70-32.88-74-36.86-17.16.65-23.77,7.26-33,33.48-42.95,46.13-15.19,48.32-9.9,51,124.18,23.12,124.18,23.12Z" transform="translate(311.06 129.61)"/><path class="cls-28" d="M979.78,1846.1c-.66-2.64-64.73-154.91-64.73-154.91L869.47,1804v53.29Z" transform="translate(311.06 129.61)"/><path class="cls-29" d="M898.53,1820.34c-2,.66-80.59-182.2-80.59-182.2l-66.05,30.93s-85.87-4.62-89.84-4-66.71.66-70.67.66-78,16.51-83.89,18.49S380,1744.76,371.41,1751.5s-158.53,92-163.81,97.24,171.08,18.57,201.46,19.19,297.91-10.6,315.75-8S898.53,1820.34,898.53,1820.34Z" transform="translate(311.06 129.61)"/><path class="cls-30" d="M810.68,1864.59C807.38,1862,705,1708.7,705,1708.7l-44.92,56.15L311.3,1682.94s-58.79-62.75-61.43-62.75-29.72-11.89-34.35-10.57-132.11,70-139.37,81.57-25.1,63.75-16.52,77S87.38,1872.3,96,1877s36.33-54.71,36.33-54.71L734.05,1825Z" transform="translate(311.06 129.61)"/><polygon class="cls-31" points="502.75 1952.19 2792.1 1959.87 2798.53 2780.13 246.51 2807.97 502.75 1952.19"/><path class="cls-32" d="M207.48,2019.74s-64,6.92,132.23-13.67,335.54-54.94,410.52-29.84,269.07,95.14,269.07,95.14,891.56-62.93,907.58-51.63,517.79,13.77,566.36,22,234.36,68,274,148.57,79.26,268.66,79.26,297.48-56.42,132.59-246.19,174.62-1593.18,90.57-1715.64,110.35S50,2729.88,8.77,2650.52,207.48,2019.74,207.48,2019.74Z" transform="translate(311.06 129.61)"/><path class="cls-33" d="M302.36,2290.07c31.4-7.35,55.18,43.09,215.69-39.6s228.79-132.39,297.7-139.24,119.77,25.1,262.78,59.45,58.43-15.69,610.68-25.57,607.38,16.42,737.17,50.42,449.18-8.57,525.8,73,128.15,274.2,48.88,382S2601.43,2825.26,2473,2894.17s-533.77,126.9-751.82,132.66-824.58-24.33-895.92-147.08-397-272.7-483.85-292.18S302.36,2290.07,302.36,2290.07Z" transform="translate(311.06 129.61)"/><path class="cls-34" d="M287.19,2385.68c44.59,1.08,170.42,14.78,231.86,0s277.43-108.56,285.35-117.15,60.27-47.55,140-53.22,584.93,121.37,610.89,131.55,648.93,61.26,651.05,62,377,125.16,411.51,168,77.27,270.87,22.2,424.36S2455.51,3454.29,2225,3562.08s-2335.08-193.41-2430.2-270.7-15.85-360.56,71.34-434.92S287.19,2385.68,287.19,2385.68Z" transform="translate(311.06 129.61)"/><path class="cls-35" d="M1010.49,2562.84c13.88-2.69,64.59-13.56,98.68-10.1s68.77,1,98.5,7.18,48.55,14.7,71.34,16.88,89.17-13,116.92-9.87,290.31-4.25,306.16-4,34.68-5.17,59.45,0,199.16,12.71,220,13.9,102.06-19.93,149.62-9.87,66.38,20.64,66.38,20.64-84.22,12.22-88.18,14.2,60.44,4.95,88.18,4.95,73.33-3,97.1-5.94,41.05-19.62,66.11-18.73,20.1-25.53,39.91,5.52,24.77,34,29.73,48.87-34.68,36.52-34.68,42.54S225.76,2938.35,225.76,2938.35l225.91-367.3s258.6-22.7,266.53-22.25,79.27,14,85.21,18.13,39.64,2.82,46.57,0,48.55-21.61,71.34-14.19,75.3,12.79,89.17,10.1" transform="translate(311.06 129.61)"/><path class="cls-36" d="M1236.4,2599.79c4-1.14-4,3.54-11.6,7.77-5.71,3.18-11.19,6.1-11.19,6.1s32.56,30.83,52.38,30.16,166.79,31.82,191.59,34.55,153.36,8.48,165.25,6.56,66.38-71.33,66.38-71.33l-36.66-14s-41.61-6.76-45.58-6.76-51.73-4-51.73-4-65-3-70,0-155.66,6.93-158.63,7.92-60.58,6-60.58,6Z" transform="translate(311.06 129.61)"/><path class="cls-37" d="M2390.6,2736.14c-34,47.07-102.82,124.43-166.34,155-82.24,39.58-2009.4-46.9-2009.4-46.9l329.95-201.85s298.24,1,325,4,413.17-1,427-4,240.55-18.18,274.35-18.5,137.26-11.22,173.71-10.23,204.9,10.55,270.29,10.23,336.88,24.57,349.76,23.52,58.46,27.83,45.58,57c-2.93,6.63-9.92,17.87-19.93,31.74" transform="translate(311.06 129.61)"/><path class="cls-38" d="M2171.41,2665.84H2015.52s-162.49,80.59-166.46,83.23-66,63.74-35.67,76.62,323.71,28.84,331.18,30.72,195.94-50.53,201.23-54.5-68.7-83.23-68.7-83.23l-71.34-2.64L2145,2698.87Z" transform="translate(311.06 129.61)"/><path class="cls-39" d="M600.62,2743.79c19.82-4,17.18-71.34,17.18-71.34l88.51-6.61H2022.13l-15.86,15.85-5.28,14.54L1890,2757l277.43,18.49,92.32-31.87s68.85,136.24,68.85,140.2S307.34,3116.44,307.34,3116.44Z" transform="translate(311.06 129.61)"/><path class="cls-40" d="M439.45,2757H780.29l120.22-62.09h322.35s165.14,10.56,192.88,18.49,303.86-15.85,313.1-18.49,179.67-6.61,188.26-6.61,82.57,1.32,82.57,0S1890,2757,1890,2757s26.42,2.64,41,0,140,4,170.42,7.92,79.27-13.21,93.8-15.85,81.85-29.6,84.55-1.32,78,29.06,80.59,40.95-9.25,166.46-15.85,174.39S333.25,2857,333.25,2857Z" transform="translate(311.06 129.61)"/><path class="cls-41" d="M339.71,2825.69h737.83s181-7.92,192.88-7.92,363.3-5.29,376.52-5.29,166.45,13.21,166.45,13.21,66.06,12.88,79.27,12.88,128.15-9.24,144-13,128.57-18.33,152.14-13.05,67.16,41,73.77,54.17-4,289.32-25.1,315.74S263.74,3424.15,240,3421.51,339.71,2825.69,339.71,2825.69Z" transform="translate(311.06 129.61)"/><path class="cls-42" d="M498.9,2878.54c4-2.64,228.55-11.89,228.55-11.89L919,2838.57l82.56,10.67v95.35s-448.51,100.41-467,99.09S498.9,2878.54,498.9,2878.54Z" transform="translate(311.06 129.61)"/><path class="cls-43" d="M736,2989.59l274.45-145.07,247.71,11.89s189,20.81,195.07,24.77,373.67-42.61,373.67-42.61H2078.6l99.09,27.75-90.17,109.77S2064.73,3113,2065.72,3116,736,2989.59,736,2989.59Z" transform="translate(311.06 129.61)"/><polygon class="cls-44" points="2228.16 3078.16 2384.71 2968.18 2554.14 3010.79 2480.82 3156.44 2228.16 3078.16"/><path class="cls-45" d="M476.44,3036.74s139.71-48.72,146.64-47.15,97.1-12.3,104-12.3,170.42,13.7,175.37,12.3,401.29,4.54,401.29,4.54l53.66,3s319.88-8.14,323.84-7.56,108-5.36,119.89-6.35,183.31-5.95,183.31-5.95,50.59-4.72,68.39,4.58,48.52,32.08,48.52,45-24.77,113-35.67,128.81S755.85,3311.2,755.85,3311.2Z" transform="translate(311.06 129.61)"/><path class="cls-46" d="M1192.81,3047.64l112-42.61s21.8-5.94,24.77-5.94,108.56-7.93,108.56-7.93,48,1,54.93,0,31.7-3,45.57,0,58.46,8.92,62.43,9.91,61,19.24,68.14,17.55,22,4.55,28,8.21,14.86,20.81,15.85,33.69,8.92,37.65-62.42,54.5-37.65,22.78-190.24,21.79-222.94-5-233.84-6.95-28.73-29.71-28.73-36.64S1192.81,3047.64,1192.81,3047.64Z" transform="translate(311.06 129.61)"/><path class="cls-47" d="M642.9,3129.86l436.95-84.2,122.82-9.91,849.18-8.92s-31.7,44.59-33.69,59.45-3,84.22-14.86,113.95S1965.65,3313.18,1933,3334s-725.38,164.47-730.28,164.47S774,3275.83,761,3258.84,642.9,3129.86,642.9,3129.86Z" transform="translate(311.06 129.61)"/><path class="cls-48" d="M339.71,3172.48s237.79-43.59,241.76-42.6,201.13,20.8,218,34.68,296.26,36.66,299.23,35.67c1.63-.55,65.12-.48,121.87-.32,46.34.14,88.18.35,88.18.35s91.16-4,102.06-6,185.28,1,199.15,2,94.13,8.92,94.13,8.92,99.09-14.86,116.92-14.86,93.86-11.89,105.89-6.94,35.8,9.91,40.75,17.84-17.83,137.72-32.69,156.55S597.32,3562.08,597.32,3562.08Z" transform="translate(311.06 129.61)"/><path class="cls-49" d="M1226.49,3245.06c2,3.33,123.18,21.33,131,24.66s207.46,8.66,207.46,8.66l81.7-21.32,20.81-29.33s4-10.66,0-12.66-7.92-19.33-24.77-22.66-144.66-15.33-174.38-14-222.94,10-232.85,11.33-32.49,32-32.49,32-.57,9.76,0,9.73,26.55,8.93,26.55,8.93Z" transform="translate(311.06 129.61)"/><path class="cls-50" d="M422.94,3286.43c14.86,0,798.6-66.39,798.6-66.39s213.16,14.87,216.56,16.85,107.44,0,112.39-2,149.62-18.83,161.51-18.83,188.26,8.92,203.12,11.89S2033,3252.74,2038,3256.7s27.74,232.85,27.74,241.76-70.34,149.62-127.81,163.49S455.63,3357.77,455.63,3357.77Z" transform="translate(311.06 129.61)"/><path class="cls-51" d="M884.66,3357.77c8.92,1,282.39,44.57,282.39,44.57l643-5.93s30.72,279.41,22.79,283.38-674.75,52.51-720.33,32.69-219-350.75-227.89-349.76S884.66,3357.77,884.66,3357.77Z" transform="translate(311.06 129.61)"/><path class="cls-52" d="M884.66,3485.58h568.73l225.91-89.17s309.14,37.65,312.11,39.63-43.59,213-70.35,219-751,22.78-776.8,12.88S884.66,3485.58,884.66,3485.58Z" transform="translate(311.06 129.61)"/><path class="cls-53" d="M1263.16,3571.79l545.94-169.44s99.08-2,102.06,37.66,48.55,158.53-30.72,180.33-192.22,60.44-266.53,86.2-381.47,16.84-406.24-10.9S1263.16,3571.79,1263.16,3571.79Z" transform="translate(311.06 129.61)"/><path class="cls-54" d="M2533.48,1955.11,2392,1939.9s-44.63-4.27-44.73,15.21,66.22,93.78,66.22,93.78l-36.6,54.49s32.57,36.89,36.6,41.73,12.94,34.57,12.94,50.42,2.84,31.71,4.4,45.58,10,9.26,15.19,27.42,1.94,9.63,5.05,26.77a228.21,228.21,0,0,1,3.29,44.65c-.18,12.13.85,22.73,2.81,27.83s-.34,10.88,3.29,17.9-2.33,8.75,4.62,19.22,1,12.53,7.92,20.5,9.24,26.75,8.09,32.7,4.74,12.71,1.8,29.64-13.53,9.5-1.8,31.05,49.37,51.69,49.87,44.05,6.61-40.34,2.57-67.09-17.07-86.81-15.51-121.68,23.84-324.19,23.84-324.19,5.47-38-.48-44.24S2533.48,1955.11,2533.48,1955.11Z" transform="translate(311.06 129.61)"/><path class="cls-55" d="M2307,2024.12c1.5,0,1.84-5.29,18.52,0s20.57,12.56,20.57,12.56-52.92-2.29-57.64,0-67.51,11.22-67.51,11.22,50.8,8.67,55.31,6.81,68.45-1.11,78.09,0,58,6.13,48.7,7.58-118.86,15.33-137.42,20.28,6.22-5,35,0,48.4-8,59.87,1.43,2.55,23.18-18.26,27.23-75.3,4-94.12,11-40.9,9.19-6.58,13,59.09-.86,95.75,0,52.51-9.7,42.61,1.52-77.21,29.05-111.93,36-87.23,2-34.72,6.94,100-6.94,130.27,0,66.33,13.27,29.46,24.47-46.83,11.16-46.83,11.16,42.66,6.11,39.69,5.55-64,25.2-68.15,27.18-32.47,20.49-32.47,20.49l78.3,16.17s43,15.54,50,16.2,35.08,2.63,30.45,6.59S2402.1,2336.73,2392,2340s-77.91,19-82.67,19,109.18,15.09,109.18,15.09l37.63,11.61-114.92,51.76,99.44,26.37,36.58-11.24-16.78,31.29s-49.47,13.87-60.08,17.83-23.49,0-23.49,0l83.57,21.55,22.43,25.55L2392,2566.93s71.1,18.32,77,20.64,27.74,1.32,28.73,5.28-14.39,31-14.39,31L2518,2548.8s-25.93-41.16-29-44.13,4.92-39.18.49-50.54S2472,2419,2470,2408.83s2-23.67,1-34.76-6.93-17.25-5.94-38.94,4-62.32,4-62.32l-8.58-17.83,5.61-18.76s-8.59-16.34-13.21-13.65-12.2-1.71-12.2-1.71l24.42-16.71s6.93-1.69,4.95-8.62-28.15-23.78-33.4-24.77,8.84-8.92,12.2-8.92,18.23-6.93,18.23-6.93-19.6-7.71-27.14-9.8-22.4-18.94-22.4-18.94,8.62-14,23.14-14.94a251.88,251.88,0,0,1,28.38,0s-19.6-15.77-29.12-16.77-53-12.88-30.75-21.79,37.8-15.11,41.9-18,4.68-17.35-14.44-18-44.87-7.49-48.83-7.47,5.15-23.14,5.15-23.14Z" transform="translate(311.06 129.61)"/><path class="cls-56" d="M2508.62,1946.83l-16.95,14.61L2473,1981.51s28.74,34.84,35.67,38.23-20.85,17.73-15.38,22,14.65,19.15,16.5,20.6-22.6,15.33-22.6,15.33-3.58,17.84,12.42,20.81,29.53-19.82,25.74,0-42.12,34.18-44.26,40.37,22.83,6.31,22.83,6.31-19.39,21.68-16.73,24.66,11,1.67,16.73,11.73-2.6,20.87-8.34,27.36,7.55,1.47,8.34,6.45-21.68,21.83-22.83,34.71,1.61,14.87,10.63,29.73,13.4,18.93,12.2,35.23,8.13,11.85,0,25-13.44,10.08-16.73,19-17.21,12.14-3.81,19.46,18.36-2.58,26.28,15.25-5.74,43.75-5.74,43.75,3.76-2.69,6.73,12-10.89,12.66,0,31.49,14.16,17.83,26.9,22.79,23.55,11.39,28.55,7.18,16.27-.25,13.11-13.13-19-12.33-19-52.24,4.7-69.93,6.81-77.71,10.32-27.46,9.21-32.65,14.36-5.84,6.1-14.26-22.12-21.9-22.12-25.57,5,.3,9.92-21.5,8.48-25.76,5.23-29.72-29-2.35-19.12-14.55,22.25-30,22-34,1.79-13.87-8.14-18.83-8.9-4.95,0-15.85,17.71-13.38,11.33-22-19.36-2.72-15.35-19.56,9.41-17.84,12.16-29.73,4.08-23.24-2-26-5.09-17.24-6.1-26.84-12.9-27.43-10.91-40.31,6.85-27.74,6.89-30.71,2.77-16.85.91-18.83-63.59-3-67.4,0S2508.62,1946.83,2508.62,1946.83Z" transform="translate(311.06 129.61)"/><path class="cls-57" d="M2446,1955.11s95-16,98.13-15.61,61.5.25,75.93,0,128.7,6.63,144.56,7.81,78.6-4.92,83.23-7.81,3.12-10.16,25.67-27.34,42.36-27,54.91-44.22,23.78-26.68,23.78-26.68-95.87-7.7-122.25-5.72-25.93,3.31-35.4-.33-17.39-10.9-32.59-16.18-20.48-13.61-31.7-15-19.73,1.56-32.66,2.32-61.8.84-64.44,2.45-39,.37-45.58,0-16.69-6.75-21.56-6.53-2.88-18.71-10.15-19.82S2499.11,1766,2493,1767s-33.61,31.73-33.61,31.73l3.3,16.84-164.47-6.73s-43.6,14.17-49.54,26.06,15.93,66.05,19.19,70.68,78.84,34,78.84,34Z" transform="translate(311.06 129.61)"/><path class="cls-58" d="M2102.05,1655.57s3.31,18.85-27.08,20.8-71.34,6.63-83.23,7.59-17.17-12.25-24.44,17.48-37.65,33.69-44.92,70.68-19.15,70.67,9.25,84.55,81.91,31,119.56,32.36,65.45,31.49,110.67-12,58.24-98.92,49.09-153.11S2102.05,1655.57,2102.05,1655.57Z" transform="translate(311.06 129.61)"/><path class="cls-59" d="M1213.61,1629.44s70.68,78.56,94.46,107.64,61.43,76.65,68,87.88,25.63,22.6,37.65,29.06,172.88-107.19,178.92-112.29,33.78-36.5,47-49,52.84-53.41,48.88-63.32-119.92-51.88-119.92-51.88-254.61-27.39-267.16-24.75S1218.24,1630.1,1213.61,1629.44Z" transform="translate(311.06 129.61)"/><polygon class="cls-60" points="1037.19 498.06 1221.48 593.17 1235.68 815.24 1078.8 866.87 976.42 470.31 1037.19 498.06"/><polygon class="cls-61" points="886.58 682.35 1019.35 636.61 1078.8 866.87 886.58 682.35"/><polygon class="cls-62" points="829.11 925.93 1106.05 860.54 864.06 668.59 829.11 925.93"/><polygon class="cls-63" points="652.42 809.5 829.11 925.93 872.71 595.16 652.42 809.5"/><polygon class="cls-64" points="1221.48 593.17 2103.32 309.8 1607.9 163.16 1162.03 367.27 1060.97 470.31 1003.5 529.76 1221.48 593.17"/><path class="cls-65" d="M2020.15,281.25l158.63-126.82S2036,59.31,2032,53.36s-119,91.35-119,91.35L1792.26,190.1,1994.38,311Z" transform="translate(311.06 129.61)"/><polygon class="cls-66" points="2536.01 353.39 2428.17 420.77 2428.17 646.68 2536.01 353.39"/><polygon class="cls-67" points="2517.35 299.89 2328.6 383.06 2452.38 440.59 2517.35 299.89"/><polygon class="cls-68" points="2444.16 387.08 2428.17 646.68 2296.58 378.17 2444.16 387.08"/><polygon class="cls-69" points="2682.35 440.59 2428.17 646.68 2536.01 353.39 2682.35 440.59"/><polygon class="cls-70" points="2920.76 761.62 2428.17 636.61 2733.22 378.17 2998.03 692.26 2920.76 761.62"/><polygon class="cls-71" points="2464.92 616.88 2210.32 836.92 2482.09 836.92 2464.92 616.88"/><polygon class="cls-72" points="2210.32 821.13 2341.11 1003.16 2536.01 797.26 2210.32 821.13"/><polygon class="cls-73" points="2477.62 1153.02 2296.58 1154.19 2346.2 975.57 2346.2 1015.21 2472.94 1121.37 2477.62 1153.02"/><path class="cls-74" d="M692.44,1012.48c7.93,3,190.24,5.95,190.24,5.95L825.21,930.5Z" transform="translate(311.06 129.61)"/><path class="cls-75" d="M1393.72,948l14.1-15.41s12.33-.6,13.65-2.06,6.16,0,6.16,0L1424.55,948a57.07,57.07,0,0,1,5.72,5.72c3.09,3.53,15,13.22,15.86,16.3s.44,7.92,0,13.65.51,37,.51,37l-19.45-25.54-11.45-15.41s-5.17-8.68-5.67-10.73-3.13-8.21-4.46-8.21-17.17.88-20.69,1.32-18.06,6.61-22.46,7.93-9.69,4.1-11.89,4.47-12.33.07-14.09,0-10.57-4.47-14.1-4.47-9.24-.44-10.56-.44-11.89-2.2-11.89-2.2-13.66-.89-16.74,0-13.65,1.32-13.65,1.32l45.36-17.22,23.34-3.92c2.64-.44,36.11-.44,36.11-.44Z" transform="translate(311.06 129.61)"/><path class="cls-75" d="M1080.18,1081l44.92-9.25s15,3.53,21.14,4.63,16.73,5.5,18.93,7.26,22,0,26.43,0,9.24-.63,13.21.79,7.93,2.81,11,7.4,16.29,15.15,19.81,17.35,3.53-8.8,3.08-10.57-5.72-14.09-5.72-14.09-6.61-10.13-7.93-10.57-26,1.33-26,1.33l-8.37-3.53s-7-8.36-8.36-10.13-3.52-5.72-5.29-5.72-8.36-3.08-11.89,0-29.5,3.52-33,3.52-22.9,5.73-26.87,7.49S1080.18,1081,1080.18,1081Z" transform="translate(311.06 129.61)"/><polygon class="cls-76" points="1193.74 595.16 2317.33 593.17 2428.17 646.68 2347.06 389.06 2103.32 309.8 1631.68 339.52 1193.74 595.16"/><polygon class="cls-77" points="2811.74 1020.03 2644.31 1134.16 2872.2 1110.38 2951.46 1044.99 2811.74 1020.03"/><polygon class="cls-78" points="3064.42 914.2 2818.69 1007.34 2830.58 1336.29 3011.9 1336.29 3064.42 914.2"/><polygon class="cls-79" points="3011.9 1020.03 2895.77 1206.57 2967.16 1389.86 3086.28 1318.6 3011.9 1020.03"/><polygon class="cls-80" points="2719.61 1350.16 2604.67 1106.42 2806.8 1077.1 2842.47 1312.51 2719.61 1350.16"/><polygon class="cls-81" points="2719.61 708.11 2545.94 795.3 2456.05 890.42 2505.59 1020.03 2656.2 1007.34 2797.88 1007.34 2514.51 1090.17 2499.64 1155.96 2626.97 1146.06 2818.69 1007.34 2719.61 708.11"/><path class="cls-82" d="M2596.81,1240.37s-170.43,6-176.37,0-73.32-10.57-91.16,2.65-93.13,54-116.91,58.38-44.26,30.13-58.79,41-24.44,32.7-24.44,32.7,61.43,19.81,74.31,17.83,153.58-39.63,184.29-41.61S2596.81,1240.37,2596.81,1240.37Z" transform="translate(311.06 129.61)"/><path class="cls-83" d="M2852.44,1202.72,2674.09,1171H2640.4l-156.55,67.37S2370.9,1282,2361,1284s-90.68,26.77-102.81,34.19-75.54,24.27-75.54,24.27-43.59,5-49.54,0-69.58,60.77-69.58,60.77,70.08,25.4,84.3,28.41,87.06-34.69,87.06-34.69,50.81,2,72.61,7.93,65.39,7.93,80.25,5.94,121.61-37.72,143.67-33.68,122.86-34.68,122.86-34.68Z" transform="translate(311.06 129.61)"/><path class="cls-84" d="M2085.54,1464.3s218,11.89,221.95,9.91,80.25-9.91,80.25-9.91L2357,1511.86h-49.54c-9.91,0-83.07,19.66-95.12,25.76s-49.2,79.26-49.2,79.26-69.7,2-77.63,0S2085.54,1464.3,2085.54,1464.3Z" transform="translate(311.06 129.61)"/><path class="cls-85" d="M2277.76,1725.55l-180.33-76.25,15.85-85.92,121.6-55.48h83.19s54.81,96.87,52.83,109.86S2277.76,1725.55,2277.76,1725.55Z" transform="translate(311.06 129.61)"/><path class="cls-86" d="M2426.38,1583.2l70.17-9.91s30.4,6,37.42,5,68.14,7,67.79-5-23.38-109-23.38-109H2445.09Z" transform="translate(311.06 129.61)"/><path class="cls-87" d="M2561.14,1016.45,2579,1733.8h261.58Z" transform="translate(311.06 129.61)"/><polygon class="cls-88" points="2856.34 1110.38 2818.69 1007.34 2806.8 1926.83 2872.2 1936.73 2872.2 1902.16 3191.24 1902.16 3191.24 1882.79 2872.2 1885.6 2856.34 1110.38"/><polygon class="cls-89" points="2779.06 1300.62 2618.55 1661.28 2779.06 1712.81 2779.06 1300.62"/><polygon class="cls-90" points="2779.06 1902.16 2779.06 1712.81 2618.55 1661.28 2719.61 1902.16 2779.06 1902.16"/><polygon class="cls-91" points="2523.43 1908.22 2719.61 1902.16 2618.55 1661.28 2523.43 1908.22"/><path class="cls-75" d="M2129.14,1171c18.68-2,148.62-49.55,148.62-49.55l-140.7,99.09Z" transform="translate(311.06 129.61)"/><polygon class="cls-92" points="2719.61 708.11 2818.69 1007.34 3011.9 957.8 3011.9 781.43 2719.61 708.11"/><polygon class="cls-10" points="2464.64 857.73 2339.13 997.43 2499.64 1155.96 2533.33 1006.84 2621.52 817.1 2464.64 857.73"/><path class="cls-93" d="M1988.44,1016.45" transform="translate(311.06 129.61)"/><polygon class="cls-94" points="2514.51 1090.17 2797.88 1007.34 2630.43 817.1 2533.33 1006.84 2514.51 1090.17"/><polygon class="cls-95" points="2941.55 1643.45 3151.61 1863.41 2872.2 1155.96 2872.2 1227.3 3011.9 1538.42 2941.55 1643.45"/><path class="cls-93" d="M2584.32,2326.86" transform="translate(311.06 129.61)"/><path class="cls-93" d="M2306.23,2847.37" transform="translate(311.06 129.61)"/><path class="cls-93" d="M3323.48,1634.6" transform="translate(311.06 129.61)"/></g></g></g><g id="桌子"><polygon class="cls-96" points="901.3 2090.98 1065.02 1910.39 2681.54 1892.59 2823.5 2084.37 901.3 2090.98"/><polygon class="cls-97" points="901.3 2151.43 901.3 2089.34 2823.5 2089.34 2823.5 2143.51 901.3 2151.43"/></g><g id="显示器"><path class="cls-98" d="M1791.78,1775c-2,2.67-.88,18.62,0,19.5s-4.62,8.14-4.62,8.14-10.57,4.63-11.67,5.07,4,.88-23.78,5.28-36.55,5.51-48.88,7-15.64,2.64-30.61,3.74-60.07-1.54-64.83,0-44.38,2.64-50.11,2.64h-41.61s-60.77-2.64-61.43-2.64-12.77-.66-17-.88-27.52-1.76-31-2-14.31-1.1-20.7-1.32-14.31-.44-17.17-.66-5.73-1.32-10.79-2.42-9-2.43-10.57-2.87-4.18-5.72-4.18-5.72l-4.19-3.08-5.94-13.32-2-9.78,1.8-3.55L1345,1775l326.09,4.75,121.76-4.75" transform="translate(311.06 129.61)"/><path class="cls-99" d="M1641.61,1769.15l-318.82-1.54s13.43,25.1,17,27.52,34.35,6.82,42.5,9.25,51.3,5.94,58.57,7,39.41,2,47.56,2.42,40.73,1.33,48.22,1.55,40.29-1.55,46.24-1.55,54.6-2.2,58.78-2,47.34-3.52,49.55-4.18,39.19-5.51,41.61-6,32.15-4.18,32.15-4.18l18.93-12.11,7.93-10.47V1770l-.66-2.42Z" transform="translate(311.06 129.61)"/><path class="cls-100" d="M1611.14,1768.46l-204-.85s8.59,13.83,10.85,15.17,22,3.76,27.19,5.09,32.83,3.28,37.48,3.89,25.22,1.09,30.43,1.33,26.07.73,30.86.85,25.78-.85,29.59-.85,34.94-1.21,37.62-1.09,30.29-1.94,31.7-2.3,25.08-3,26.63-3.28,20.57-2.31,20.57-2.31l12.12-6.67,5.07-5.78v-2.72l-.42-1.33Z" transform="translate(311.06 129.61)"/><path class="cls-101" d="M1504,1632.63s-.88,39.86,0,41.84,0,65.61,0,65.61-.1,27.09.39,28.63,4.67,6.16,4.67,6.16,15,.22,18.28,0,99.3-1.32,99.3-1.32,3.53-7.49,3.08-8.81-1.76-37.21-1.76-38.31-.22-21.92-.22-22.63.66-30.65.44-31.75-.66-35.45-.66-35.45-52.18-6.83-54.16-7.93S1504,1632.63,1504,1632.63Z" transform="translate(311.06 129.61)"/><path class="cls-102" d="M1526.24,1648.49c.44,1.54.44,26.42,0,30.16s-.11,7,.16,12.55.06,8.15.17,14.31-.27,18.28-.27,18.28l5.44,2.86s6-.88,16.52,0,22.9-1.1,29.28,0,13,1.35,16.29.23l7.93-2.65s2.86-6.17,2.64-7.93,3.75-7.48,2.87-10.35-2.21-29.94-2.65-33.46-.44-18.9-.66-22,.44-18.72.44-19.82-40.29-2.42-47.78-4.84-32.8,1.76-32.8,1.76Z" transform="translate(311.06 129.61)"/><path class="cls-103" d="M947.6,1333.92c0,57.35.74,139.3.74,139.3l-.74,148.63,1.47,15.85,6.53,6.61,14.87,3s25.43-.66,26.75,0,1162.24-.33,1162.24-.33l13.54-1,3.3-5.62,1.65-14.53V1612.6l-3.3-529.43-1.65-5.62h-2l-5.29-3s-9.25-.33-10.24,0-1204.51,3-1204.51,3l-2.64,2c.66,89.18,0,160.19,0,160.19s1.65,36.66,0,39.63c-.57,1-.75,24.39-.74,54.57" transform="translate(311.06 129.61)"/><g class="cls-104"><path class="cls-105" d="M170.13,1265.15" transform="translate(311.06 129.61)"/><path class="cls-106" d="M931.82,1058.82c25.07,276.24,88.84,327.28,104.86,344.88s97.23,39.11,159.69,61.63,426.06,68.62,464.7,67.32,29.73,15.09,137.73-11.23,77.28,5,164.47-50.79,99.09-57.08,129.8-112.75,47.18-60.79,56.29-113.25,24.3-116.76,23.64-138.34,8.19-64.62,4.95-65.57-46.24-60.38-71-56.74-1003.7,20.93-1007.67,23.29-138.71,11.42-140.2,12.71S931.82,1058.82,931.82,1058.82Z" transform="translate(311.06 129.61)"/><path class="cls-107" d="M930.5,1093.08c12.55-.66,29.78-4,38.67,5.94s14.18,22.46,24.08,23.12,5.29,5.95,21.8.66,30.39-10.57,33.69-11.23,7.93-.88,20.48,16.07,14.53,32.81,31,42.72,26.43,18.5,41,25.1,6.6,14.53,50.86,19.82,60.77,7.26,95.12,19.15,46.24,11.23,70.68,32.37,20.48,30.39,56.81,37.65,39.63,7.27,62.75,21.14,30.11,13.87,31.9,23.12-.2,15-18,24.32-29.06,21.92-68,35.79-77.82,18.49-195.79,12.55-158.92,4-223-30.39-122.86-58.12-145.32-102.38-34.35-66.54-25.1-88.43S914.65,1092,914.65,1092Z" transform="translate(311.06 129.61)"/><path class="cls-108" d="M2110.91,1098.14c-18.5,60.77,11.45,49.32-23.78,62.53s-27.75,11-55.05,15.42-6.61-30.39-43.6,6.6-32.58,43.16-42.71,50.64-7.93,13.65-30.83,15-36.55-9.25-48.44,4.84-12.33,12.33-27.74,34.35-34.35,32.14-19.82,42.71,38.34,23.88,89.54,31.81,164.11,22.77,212.11-5.62,74-25.31,106.57-89.6,38.31-67.38,39.64-109.65,2.64-64.29-14.1-85.43-72.44-50.2-89.94-45.36-34.68,10.57-40.84,25.1-8.37,46.24-8.37,46.24Z" transform="translate(311.06 129.61)"/><path class="cls-109" d="M1425.92,1415.42c3.3,0,42.27-28.4,76-35s100.4-9.25,112.95-10.57,21.14-9.91,56.81-22.46,37.65-14.53,53.5-9.91,15.2,14.53,34.35,6.61,31.71-22.46,46.24-33.69,24.44-26.42,41.62-29.73,27.08-4.62,35-7.26,28.4-9.25,36.33-11.89,39-2,54.16,0,33,5.94,50.2-2.65,48.22-25.1,66.06-38.31,61.19-39.64,73.65-42.93,50.53-29.73,77.61-9.25,42.28,53.5,48.22,91.15,19.82,95.12,18.5,152.59-.21,92.21-27.85,152.45-65.16,90.57-120.71,112.73-95.18,40-151.33,42.3-115.6,12.89-239.12,8.27-152.59,7.55-218-10.43-104.37-27.23-128.81-55.63-42-75-34.22-107.88,23-109.08,23-109.08Z" transform="translate(311.06 129.61)"/><path class="cls-110" d="M754.12,1588.49c476.27-303.19,494.77-313.1,494.77-313.1l37-23.12s15.19-18.5,20.48-11.89,7.92,12.55,15.19,28.4,9.25,23.12,19.81,44.26,19.82,40.37,21.14,47.93,19.16,43.89,21.8,61.72,4.62,92.48,0,106.35-223.93,155.23-251.67,161.83-172.4,29.65-301.87,28.7S728.37,1607,728.37,1607Z" transform="translate(311.06 129.61)"/><path class="cls-111" d="M918.39,1127.64c13.21,5.29,67.82,39.64,67.82,39.64s27.74,9.25,38.31,23.78,15,18,32.15,33,27.74,22.45,47.56,33.46,30.38,11,44.47,22,22.9,15,45.36,22.9,41,14.53,58.57,24.66,22.46,8.81,43.16,23.34,20.69,24.66,39.19,33.91,17.61,10.13,35.67,17.61,49.32,15.86,49.32,15.86,15,4,22.9,11.89,42.71,26.42,44.92,29.06,17.17,10.13,18.49,13.21,6.17,18.5,0,26.86,3.52,15.42-32.59,34.79-783.41-10.57-788.25-9.68-39.64-41.84-45.8-64.74,13.65-160.29,24.22-199,92.67-100,118.11-110.1S918.39,1127.64,918.39,1127.64Z" transform="translate(311.06 129.61)"/><path class="cls-112" d="M918,1151.87c4.41,0,54.61,18.05,70,29.06s22.46,15.85,39.63,28.18,11.78,8.81,31,26.87,19.21,11.44,34.63,33,21.12,39.2,30.16,52,17.88,12.33,27.11,28.18,18.91,32.59,29.92,48-3.08,40.07-26.42,43.16-75.3,13.21-153.69,6.16-203-24.89-232.95-51.2-2.65-90.6,18.93-128,55.05-82.35,78.83-92,49.76-21.13,49.76-21.13Z" transform="translate(311.06 129.61)"/><path class="cls-113" d="M2167.05,1270.1s-15.85,5.87-33,14.17-44.26,21.5-64.74,23.48-50.2,1.33-76,1.33-61.52,6.6-63.46,7.26,15.9,27.75,20.52,36.33l11.74,21.8s-40.14-5.86-56-13.5-33.69-19.53-50.21-18.21,14.54-11.23-39,8.59-41,10.58-87.85,23.12-90.5,13.2-88.52,20.8,1.33,1,7.93,17.51,16.51,17.84,8.59,23.12-17.84,10-39.64,8.95-44-5-54.69-3.66-43.07,1.32-60.24,11.89-35.67,28.9-35.67,47.48-27.74,52.92-23.12,93.87-34.49,45,57.47,74.65,262.24,29.72,348.11,29.72,79.26.66,181.65.66,153.25,17.84,232.51-31.71,85.87-69.27,85.21-155.84,4.63-148.52-17.17-178-97.57-36.15-116.16-49.65S2167.05,1270.1,2167.05,1270.1Z" transform="translate(311.06 129.61)"/><path class="cls-114" d="M1513.33,1716.86a21,21,0,0,0,2.07-2c12-13.11,30.07-58,30.07-81.68,0-25.1-7.55-58.53-11.44-58.57s-6.17-7.09-11.45-17.2-12-16.88-22-25.52-40.52-27.3-60.33-29.5-61.65,3.52-76.63,7-52.44,19.84-51.08,32.59,20.26,25,51.08,50.64,65.52,30.35,54.34,63.62-39.36,40-9.86,50.06,49.76,9.18,66.06,10.51,26.42-1.33,30.38,0S1513.33,1716.86,1513.33,1716.86Z" transform="translate(311.06 129.61)"/><path class="cls-115" d="M979.16,1256.67c5.73,5.73,79.71,66.5,86.31,73.1s33.47,20.67,53.29,26.63,54.6,15.21,66.93,15.65,54.61-15.11,58.13-11.08,20.7,4.25,24.66,27,8.37,36,16.74,40.41,57.25-13.66,63.85-15,21.14-18,36.11.44,16.74,29.95,32.59,49.76,22.9,43.6,35.67,43.16,58.31-23.78,62-25.1,3.21-.88,2.33,9.25,7,18.49-8.37,27.74-123.3,33.91-125.5,33.91,11.45,3.48,12.33,4.82.44,7.07-11.89,9.27-25.68,1.76-17.46,6.83,22.74,16.51,22.74,32.8-2.2,28.11-10.56,41.14-29.07,69-30.39,69.4-37.87,24.68-77.5,22.69-3.09,39.4-181-14.77S796.41,1634.51,785,1590s13.21-106.57,20.26-133.87.44-78.39,22-112.29,65.17-59,85.43-69.14,20.25-26.42,20.25-26.42Z" transform="translate(311.06 129.61)"/><path class="cls-116" d="M921,1410.8c5.73.44,133.76-12.77,137.56-12.33s43-4,48.28-3.08,29.06,2.2,31.27,5.72,56.36,49.76,59.89,53.73,23.33,22,33,27.3,39.64,17.61,52.41,35.67A336.5,336.5,0,0,0,1316,1557c5.73,5.73,39.64,15.86,45.36,15.86s23.34,4.84,29.95,7.48,43.59,22,43.59,22,3.09,10.57,3.09,12.33-74.87,75.74-74.87,75.74-24.22,11.89-26.42,12.33-96.88,14.54-102.6,15-156.78,8-218-11.39-193.76-48.94-203.89-61.71,4.41-111.78,7.49-132.73,82.79-87.9,85.87-90.54S921,1410.8,921,1410.8Z" transform="translate(311.06 129.61)"/><path class="cls-117" d="M968.48,1392c67.71,28.73,36.66-1.33,73,33s16.85,24.11,56.48,54.5,49.54,37.32,64.41,56.14,23.78,27.09,26.42,32.7,13.54,25.43,16.84,33.69,20.81,58.13,21.47,63.08,3.3,30.72-23.12,34.68-153.91,10.57-203.78,3.3-114.28-31.1-110.31-40,17.5-38,15.85-86.2S946,1410.47,946,1410.47L918.28,1388Z" transform="translate(311.06 129.61)"/><path class="cls-118" d="M941,993c126.17,90.5,98.42,80.14,140,92.91s26.42,6.17,72.66,32.59,42.56,17.84,73.79,37,33.22,24.82,58.32,39.82,25.1,20.29,60.77,30.85,33.69,10.58,60.11,22.14,28.4,15.94,57.47,24.65,33.65,6.72,52.49,16,21.91,16.51,46.14,17.83,17.17.66,46.79,0-19.92,16.32,61.33-6.37,79.27-21.37,104.37-34.58,15.19-10.11,46.9-26.86,42.76-21.35,71.91-39.52,34.43-20.37,58.87-38.76,41.62-46,62.1-71.15,42.93-56.23,48.22-72.74a235.59,235.59,0,0,0,9.9-47.56c1.33-13.87,25.77-23.78-7.92-35.67s-84.55-17.83-152.59-21.14-76.62-15.85-243.08-6.6S1300,948.08,1227.48,958,962,971.86,959.07,973.18,941,993,941,993Z" transform="translate(311.06 129.61)"/><path class="cls-119" d="M938.76,1532.34l128.48-16.84,23.78-1.32s25.1,26.42,30,34.35,67.38,70.89,68.7,74.75,14.2,43.15,14.2,43.15-14.2,17.51-18.83,17.51-159.19-24.11-166.45-26.42-131.45-3.31-131.45-3.31,9.57-63.08,5.94-70S938.76,1532.34,938.76,1532.34Z" transform="translate(311.06 129.61)"/><path class="cls-120" d="M1585.46,1529.7s22.15-7.93,24.11,0,12.53,2.51,16.49,10.5,8.59,17.86,6.61,7-3.31-38-3.31-38,13.51-12.55,15-17.17,3.49-26.42,14.06-31.71,23.78-15.14,33.69-15.49,11.23-4.32,33.68-4.32,50.21,1.32,72.67.66,42.27,2.64,62.09-3.31,39.63-26.42,44.91-29.06,30.39-20.81,30.39-20.81l22.31-2.43s20.63-4.5,24.59-4.5-3.3,2.64,32.37,9.9,77.28,6,132.11,21.8,70,2,78.6,58.79,35.67,66.72-5.94,122.86-42.61,74.44-107.84,101.3-489.26,91.58-526.6,70.45-48.58-65.4-52.87-82.24,18.17-110.91,19.49-119.37S1585.46,1529.7,1585.46,1529.7Z" transform="translate(311.06 129.61)"/><path class="cls-121" d="M1503.89,1581.88c.64-.07,1.38-.19,2.23-.33,17-2.85,73.25-18,83.64-20.47,10.9-2.65,78.27-30.39,88.51-33.36a89.08,89.08,0,0,1,35.67-3c12.88,1.65,86.53,3.3,89.18,1.65s44.91-29.76,63.74-42,49.21-62.07,49.21-62.07,8.59-37.65,10.57-40.95-2.31-13.88,26.42-9.91,57.14,25.76,73.65,24.44,40-.33,51.53-7.6,30-60.11,40.62-73,31.38-29.39,32.37-29.39,32.69-2.65,35.34-1.32,37.65,33.54,42.6,71.76,20.15,105.26,16.52,140.27-2.32,41-2.65,73.65S2202.09,1716,2201.76,1717s-106,27.41-206.09,21.79-281.4-23.45-346.79-31-129.14-10.9-142.68-18.17-97.76-17.83-97.76-17.83l-38-1.32,51.19-49.87-2.31-26.1-29.07-22.79-11.23-2,65.4-1.65s47.56,2.31,50.53,4.63S1503.89,1581.88,1503.89,1581.88Z" transform="translate(311.06 129.61)"/><path class="cls-122" d="M2155.49,1462c-28.4,17.18-50.2,27.09-63.74,35.67s-51.19,30.06-65.06,42.94-31,36.66-48.89,46.24-26.09,27.08-28.07,27.08-28.73-15.85-28.73-15.85a271.76,271.76,0,0,0-21.8-17.18c-10.57-7.26-24.77-20.47-32.37-26.09s-23.12-20.81-29.39-24.11-24.44-5-34.35-5.61-58.79-4.3-58.79-4.3-65.72,70-69.36,73-29.39,33.36-30.38,34.68,2.31,35.34,2.31,35.34,61.43-4,76.62,0,193.54,13.54,223.27,15.52,173.72-.66,195.19-1.32,49.21-1,56.81-18.82,12.55-80.92,15.85-101.4-5.28-103.7-5.28-103.7l-32.4-5Z" transform="translate(311.06 129.61)"/><path class="cls-1" d="M1592.37,1361c-11.23,1-107,6.9-122.2,8.22s-57.47-.66-69.36,0-25.76-4.63-48.88,0-103,24.42-105.68,26.08-53.36,45.91-54.42,53.84S1130,1552.82,1126,1587.17s-7.93,70,59.11,96.77,402.21,39.3,415.29,15.52,9.78-110.31,4.49-116.92-24.44-35-24.44-50.2,3.31-61.44,9.91-83.23,12.55-48.89,11.89-53.84-6.6-26.74-6.6-26.74l-2.65-3.31Z" transform="translate(311.06 129.61)"/><path class="cls-123" d="M1222,1082.34c-6.76,6-12.62,11.53-11.43,12.72,2.64,2.64,43.59,31.7,64.07,41.61s37,14.31,60.77,24,15,13,49.78,33.47,24.2,23.12,57.89,37.65,9.14-6.6,75.91,13.21,70.78,34.35,90.57,25.1,22.44-26,44.23-31.15,17.84-11.12,42.94-7.16,32.37-23.11,41.62-32.36-.67-9.25,29.72-11.9,50.2-6.6,68.7-32.36,13.21-35.67,38.31-39.64,19.07,8.59,54.78-6.6,55.53-37.65,61.48-62.75,31.7-46.9-13.21-46.24-44.26-9.91-116.92-12.55-72.66-4.63-196.19-2.64-194.2,1.29-261.57,15.17-91.16,5.3-120.22,29.08-43.6,37-43.6,37c.36,1.1-9.32,9-17.63,16.35" transform="translate(311.06 129.61)"/><path class="cls-124" d="M1300.17,1068.19c60.18,13.52,91.38-2.1,112.19,41s5.94,35.58,35.66,67.73-5.2,41.73,44.58,43.09,41.6,8.21,84.7-19.83,40.12-45.15,78-50.63,34.18,9.58,58-6.84,11.15-31.64,56.47-30.19,35.66-1.45,76.52,0,61.67-10.17,69.1-22.48,30.46-24.63,9.66-47.89-17.09-41-55-40.36-107-1.36-159,4.11-69.8-8.9-144.49,3.42-118.52,15-137.1,21.2-78,19.16-78,19.16-53.35-4.85-55.28,6.84S1300.17,1068.19,1300.17,1068.19Z" transform="translate(311.06 129.61)"/><path class="cls-125" d="M1452.34,1107c8.58,29.06-33.69,38.31,15.85,49.54s29.06,15.85,66.72,15.85,48.88-31.93,63.41-11.67,7.93,36.77,30.38,11.67,27.09-33.62,24.44-43.89S1638,1112.1,1647.2,1092s8.6-25.37,6.61-32.63-23.08-18.5-44.24-25.1-81.93-18.91-113.64-8.46-48.44,7.24-57.9,35.54-9.69,35,0,42.27S1452.34,1107,1452.34,1107Z" transform="translate(311.06 129.61)"/><path class="cls-126" d="M1533.75,1092c-5.53,7.25-4.71,5.1-5.61,7.74s-.58,2.73-1.49,6.36a17.34,17.34,0,0,0-.74,6.94,46.49,46.49,0,0,1-.05,7.1c-.28,2.89-1,3.3.54,5.7s1.09,1.48,4,4.45,3.59,4.22,7.8,6.44,3.22,1.9,9,3.89,4.54,1.4,9.66,1.89,7.68-.49,12.3-2.31,7.27-3.71,8.09-6,2.23-6.45,3.39-9.75,1.4-7.26,2.31-9.16a29.21,29.21,0,0,0,2.07-8.67c.08-2.4.66-5.29-.17-6.69s-1.24-3.55-2.64-5-2.48-1.27-4.54-3.22-2.65-2.14-7.43-3.22a139.42,139.42,0,0,0-16.44-2.14c-6-.58-10.15-.58-14.28.41S1533.75,1092,1533.75,1092Z" transform="translate(311.06 129.61)"/></g><path class="cls-1" d="M962.7,1090.6v151.1l-3.63,343v6.61l1,6.27s1.32,4.13,1.65,4.63,1.82,3.46,2.15,4,1.82,2.31,2.15,2.81,2.14,1.81,2.31,2.31a10.77,10.77,0,0,0,3.47,3c1.15.5,6.11,2.15,6.6,2.31s7.1.5,8.75,1.32,16.52-.16,17.18,0,21.14,0,21.63.34,167.29,0,167.29,0l299.23.14,539.67,4,127.15.94,1.87-.22,1.05-.83.27-1.32a5.66,5.66,0,0,0,0-1.38c-.11-.27.05-11.28.05-11.28V1093.74l.23-2-.44-1.1-1-1a16.15,16.15,0,0,1-2.31,0c-.17-.11-6.55.11-6.77,0s-102.61.33-102.61.33l-1054.4-.36-29.5.2-1,0-.79.12s-.47.12-.47.12l-.49.31Z" transform="translate(311.06 129.61)"/><path class="cls-103" d="M1528,1789.18" transform="translate(311.06 129.61)"/><path class="cls-103" d="M1665.17,1763" transform="translate(311.06 129.61)"/><path class="cls-103" d="M1803.23,1787.42" transform="translate(311.06 129.61)"/></g><g id="图层_6" data-name="图层 6"><path class="cls-127" d="M1914.24,2865.18c.47,0,16.83,6.44,19,10.08s10.06,12,8.8,24.93,1,21.8-6,31.54-7.08,12.72-13.69,16.68-20.5,15.69-24.41,17-33.8-.66-36.94-1.15-20-13.71-21.71-18.5-3.93-9.41-3.46-18.83,3.77-30.05,7.55-35.5,13.84-14.7,18.72-18,14.94-7.6,17.15-8.26S1914.24,2865.18,1914.24,2865.18Z" transform="translate(311.06 129.61)"/><path class="cls-128" d="M1894.58,2890.94c2.36,1.16,7.7,6.61,10.69,12.06s4.57,7.76,4.41,13.21,1.89,5.95-3.15,14.53-7.55,11.56-11,15.53-.16,5.94-8.49,8.75-7.4,4.79-16.84,4-8.65,2.64-17.62-3.63-13.37-14-13.21-23.95,1.89-23.61,5-28.57,6-8.58,10.23-10.73,19.35-5.28,25.33-5.12S1894.58,2890.94,1894.58,2890.94Z" transform="translate(311.06 129.61)"/><path class="cls-129" d="M1879.32,2865.18c-6,2.43-15,9.8-16,11.45s-1.27,5.95,2.92,6.61,18.22-.83,21.68-.83,11.73,2.36,15.36,4.57,12.55,15.41,13.38,19.38,1.49,5.28,2.31,9.74a28.43,28.43,0,0,1,0,12.39c-1,5,26.92.82,26.92.82s1-28.73.82-30.22-2.47-19.24-3-21.1-9.58-13.1-9.58-13.1-23.28-5.76-25.1-5.76S1879.32,2865.18,1879.32,2865.18Z" transform="translate(311.06 129.61)"/><path class="cls-130" d="M1908.89,2850.32c1.42,5.12,0,23.78,0,23.78s-3.93,4.29-7.23,5-9.92-.17-10.54,0-3.94-1.49-4.41-2,0-29.56,0-29.56Z" transform="translate(311.06 129.61)"/><path class="cls-127" d="M1787.36,3055c.47,0,16.83,6.44,19,10.08s10.07,12,8.81,24.93,1,21.8-6,31.54-7.08,12.72-13.69,16.68-20.5,15.69-24.41,17-33.8-.66-36.94-1.15-20-13.71-21.72-18.5-3.92-9.41-3.45-18.82,3.77-30.06,7.55-35.51,13.84-14.7,18.72-18,14.94-7.6,17.15-8.26S1787.36,3055,1787.36,3055Z" transform="translate(311.06 129.61)"/><path class="cls-128" d="M1767.7,3080.72c2.36,1.15,7.7,6.6,10.69,12.05s4.56,7.76,4.41,13.21,1.89,5.95-3.15,14.53-7.55,11.56-11,15.53-.16,5.94-8.5,8.75-7.39,4.79-16.83,4-8.65,2.64-17.62-3.63-13.37-14-13.21-23.95,1.89-23.61,5-28.56,6-8.59,10.23-10.74,19.35-5.28,25.33-5.12S1767.7,3080.72,1767.7,3080.72Z" transform="translate(311.06 129.61)"/><path class="cls-129" d="M1752.44,3055c-6,2.43-15,9.8-16,11.45s-1.27,5.95,2.92,6.61,18.22-.83,21.68-.83,11.73,2.36,15.36,4.57,12.55,15.42,13.38,19.38,1.48,5.28,2.31,9.74a28.43,28.43,0,0,1,0,12.39c-1,4.95,26.92.82,26.92.82s1-28.73.82-30.22-2.47-19.24-3-21.1-9.58-13.1-9.58-13.1-23.28-5.76-25.1-5.76S1752.44,3055,1752.44,3055Z" transform="translate(311.06 129.61)"/><path class="cls-130" d="M1782,3040.09c1.42,5.12,0,23.78,0,23.78s-3.93,4.3-7.24,5-9.91-.17-10.54,0-3.93-1.49-4.4-2,0-29.56,0-29.56Z" transform="translate(311.06 129.61)"/><path class="cls-129" d="M1153.51,2892.69c.66-1.32,10.4-11.39,14.2-16s6.77-11.89,20.48-15.69,17.83-4.46,20.8-4.13,24.94,5.94,28.57,8.09,1.82.17,7.27,5.29,5.12,3.05,8.26,7.88a133.67,133.67,0,0,1,6.93,11.6c3,5.45,3.14,4.79,5.12,10.74s3.3,6.93,4.13,13.87,1.49,8.09.82,15.19-.16,11.89-1.15,12.72-11.46,3.3-12.72,3.63-8.58.66-9.08.82-15.52-28.73-19.49-35.83S1153.51,2892.69,1153.51,2892.69Z" transform="translate(311.06 129.61)"/><path class="cls-127" d="M1177.66,2873.3c-.49,0-17.67,6.44-20,10.07s-10.57,12.06-9.25,24.94-1,21.8,6.28,31.54,7.43,12.72,14.37,16.68,21.52,15.69,25.62,17,35.48-.66,38.78-1.16,21-13.7,22.79-18.49,4.13-9.42,3.63-18.83-4-30-7.92-35.5-14.54-14.7-19.66-18-15.68-7.6-18-8.26S1177.66,2873.3,1177.66,2873.3Z" transform="translate(311.06 129.61)"/><path class="cls-128" d="M1198.31,2899.06c-2.48,1.16-8.1,6.61-11.23,12.06s-4.79,7.76-4.63,13.21-2,5.94,3.31,14.53,7.92,11.56,11.55,15.52.17,5.95,8.92,8.75,7.76,4.79,17.67,4,9.08,2.64,18.5-3.64,14-14,13.87-23.94-2-23.61-5.29-28.57-6.27-8.59-10.73-10.73-20.31-5.29-26.59-5.12S1198.31,2899.06,1198.31,2899.06Z" transform="translate(311.06 129.61)"/><path class="cls-130" d="M1183.28,2858.44c-1.49,5.12,0,23.78,0,23.78s4.13,4.29,7.59,5,10.41-.16,11.07,0,4.13-1.49,4.62-2,0-29.56,0-29.56Z" transform="translate(311.06 129.61)"/><path class="cls-131" d="M1197.28,2472.88c52.85,19.82,74.65,19.82,89.18,23.12s39-2.64,54.16,0,63.42-2.57,78,1,89.14,6.9,98.07,6.9,235.51-9.91,243.43-7.93,101.73-7.27,109.65-7.6,7.69,11.31,19.16-8.91,14.53-30.27,14.53-30.27-13.26-28.08-20.85-30.76-88.14-8.33-114.56-11-142.38-14.38-229.39-13.47S1197.28,2472.88,1197.28,2472.88Z" transform="translate(311.06 129.61)"/><path class="cls-132" d="M1140.48,2331c-13.87,28.16-16.52,71.29-11.89,89.78s11.89,29.68,27.08,42.57,62.75,13.72,79.27,17.22,109,5.18,124.18,6.3,99.74,6.33,129.47,6.25,84.55.47,111.63,2.71,177.69-13.72,199.49-15.26,57.46-6.58,72.66-10.5,35-9,42.27-11.2,17.84-11.21,22.46-14.57,8.59-18.48,13.21-21.84,11.06-11.2,7.83-21.85-7.18-39.86-9.81-46.54S1937.1,2337,1930.5,2331s-66.06-7.39-105-4.18S1140.48,2331,1140.48,2331Z" transform="translate(311.06 129.61)"/><path class="cls-133" d="M1225.59,2265.14c-34.35,9.94-50.79,13.8-54.13,15.46s-29.7,4.41-34.36,6.62-12.57,14.36-17.2,26.5,1.32,22.09,8.59,37,21.14,47.48,25.76,55.76,19.16,17.12,23.78,17.67,71.34-2.21,84.55,0,70.68,8.28,81.25,8.84,69.36,3.31,83.89,0,454.43-11.13,454.43-11.13l62.78-43.26s.73-34.57,4.33-36.56,8.88-34.3,8.88-34.3L1941,2284.46s-41-11.59-45.58-13.8-29.73-17-29.73-17Z" transform="translate(311.06 129.61)"/><path class="cls-134" d="M1385.16,2421c106-107.66,113.95-120.91,113.95-120.91l31.7-24.85,144.66,129.19V2421l-102.3,7.11-96.29,2.55s-59.57-4.51-60.89-4.51S1385.16,2421,1385.16,2421Z" transform="translate(311.06 129.61)"/><g class="cls-135"><path class="cls-136" d="M1171.87,2419.26c50.82-100.43,58-108.52,58.15-107.89s13.15,22.11,13.81,30.48,4,32.21,4.62,39.47-3.3,14.93,0,42.13S1171.87,2419.26,1171.87,2419.26Z" transform="translate(311.06 129.61)"/><path class="cls-137" d="M1819.17,2437.33c-1.32-12.49-1.32-95.48,0-97.58s0-36.26,0-36.26l23.62,4.77s20.64,32.77,24.6,43.29,11.51,33.51,17.83,42.6,9.91,31.39,9.91,31.39-12.41,16.14-17.43,18.18-55.23-6.39-55.23-6.39Z" transform="translate(311.06 129.61)"/><path class="cls-138" d="M1170.66,2429.71s70.73-35.56,77.89-35.56,168.34-8.36,178.25-6.27,32.73,1.39,37.5,6.27,11.38,8,11.38,14.48-.66,5.75,0,14.12,4,11.16,0,15.34-19.81,16-45.58,18.83-165.59,8.37-181.55,3.49S1170.66,2429.71,1170.66,2429.71Z" transform="translate(311.06 129.61)"/><path class="cls-139" d="M1562.21,2437.33s37-37.6,41-37.6,32.37-6.94,43.6-9.4,85.87.36,97.76,0,29.72-2.43,46.24,0,60.44,16.38,65.89,17.77,19.26,8.86,25.9,10.36-7.9,20.2-11.87,18.87-69.36,15.41-94.46,17.5-69.35,12.24-99.08,10.3S1562.21,2437.33,1562.21,2437.33Z" transform="translate(311.06 129.61)"/></g><path class="cls-140" d="M1936.28,2508.39a2.25,2.25,0,0,1-.9-.49c-6.9-5.31-37.25-52-37.25-52s-10.41-28.07,21.3-57.3,63.74,26.09,63.74,26.09Z" transform="translate(311.06 129.61)"/><path class="cls-141" d="M1147.74,2448.77S1175,2423,1176.15,2423s6.82-1.32,11,.66,3.52,69.69,3.52,69.69-.33,16-15,28.57S1147.74,2448.77,1147.74,2448.77Z" transform="translate(311.06 129.61)"/><path class="cls-142" d="M1974.42,2222.86c0,1-.33,74.31,0,78.28s1,9.58-1.65,20.8-11.56,44.92-13.21,52.85-2,21.14-6.1,30.71-13.72,32.37-18.67,40.3-19.71,23.45-23.89,30.38-4.51,34-2.86,37.65,27.08,18.83,30.38,18.83,12.55,5,30.06-4.62,40-156.55,40-156.55l21.47-150.19V2208s-40.3-.66-43.93,0-12.55,3.3-12.55,3.3Z" transform="translate(311.06 129.61)"/><path class="cls-143" d="M1061.21,2213c12.22,108.66,14.86,127.49,16.85,143.67s52.18,176.7,53.5,178.35,31.71,5.62,42.61,0,12.55-21.14,12.55-21.14,1-16.18,0-19.48-8.92-26.09-10.24-29.07-13.87-11.56-17.84-19.15-15.52-43.93-16.51-49.21-4-33.69-7.93-53.84-6.27-36-8.26-48.88-1.87-58.79-1.76-66.38-2.86-26.76-3.52-29.07-10.47-6.93-17.12-8.91-41,1.69-42.33,6.79S1061.21,2213,1061.21,2213Z" transform="translate(311.06 129.61)"/><path class="cls-144" d="M1954.28,2193.47c-.34,4-1.66,17.5,0,20.14s40,7.27,41,7.6,48.55,0,53.17,0,25.43.33,28.41-1.65,10.9-12.22,10.9-13.54-1.32-27.74-1.65-30.39-20.81-6.6-23.78-8.25-54.17,0-62.1,0-46.72,1-46.72,1Z" transform="translate(311.06 129.61)"/><path class="cls-145" d="M1010.68,2147.23v49.87s14.2,17.39,17.83,19.27,23.45,4.18,26.43,4.18,31.7-1.65,35.34-2,43.59-2.42,45.57-2.2,14.21-3.42,15.86-6.06,5-15.78,4.62-17.5-1-17.84-1.32-24.44-1.31-16.37-5-20.24-28.41-10.48-32.7-11.8-103-6.08-103-6.08Z" transform="translate(311.06 129.61)"/><path class="cls-146" d="M1031.49,2060.7c-2.65,11.23-11.23,45.58-13.88,53.5s-4,21.14-4.62,27.74.66,15.2,0,20.48,2.64,15.19,6,17.84,9.9,11.23,19.81,14.53,26.42,2,41,0,22.46-7.27,42.93-5.29,37.65.67,50.86,3.31,58.13-3.31,62.76-2.64,745.1-4.63,747.08-5.29,45.58-7.27,50.2-4,9.91,7.26,14.53,11.23,7.93,6.6,13.21,7.92,13.22-1.32,15.86,0,11.23-4,12.55-9.24,4-12.55,3.3-17.84-2.64-30.38-4.62-34.35-8.59-40.29-9.25-44.92-4-33-4-33l-21.8-5.95h-41.62s-10.57,1.54-11.34,2-12.11,16-12.66,20.48a53.58,53.58,0,0,0-.44,10.46,175.91,175.91,0,0,1-1.21,18.39c-.44,3.63.55,9.13.33,9.68s-14.09,1.43-14.09,1.43-10.57-.44-11.23-.44-13.32.55-15.63.44-24-.88-24-.88l-799.27.55-2.53-7s-1-14.2-1.1-15.74.33-11.23.22-13a15.67,15.67,0,0,0-1.54-5.39c-1-2.42-2.86-7.38-4.19-10.46s-1.43-4.73-4.29-8-10.24-6.6-13.65-7.48-11-1.54-15-1.76-12.11-1-16.41,0-15.3,3.63-18.49,4.62-11.23,4-11.23,4Z" transform="translate(311.06 129.61)"/><g class="cls-147"><path class="cls-148" d="M1041.72,2210.31c4.63-5.61,36.34-33,36.34-33s11.88-18.82,15.19-21.46,20.47-9.91,23.12-9.91,66.38,4.62,73.65,4.62,18.16,0,28.07.33,76.3-1,95.45-.66,70.35,2,85.21.33,475.16,3.75,475.16,3.75,22.9-1.77,26.86-1.77,32.59-2.64,37-2.64,41.4-4.4,46.24-4,15-.44,18.5,2.2,20.21,17.34,23.78,24.66,12.33,26.64,15,37.54,24.66,31.16,3.08,40.41-74.42,22-122.42,25.54-183.63,15-256.3,8.8-634.56-44.47-634.56-44.47Z" transform="translate(311.06 129.61)"/></g><path class="cls-149" d="M1364.85,2781.3l-22.91,9.32a30.31,30.31,0,0,0-6.6,6.39c-2.2,3.3-3.52,12.11-3.52,12.11s16.73,7.93,21.13,11,31.71,9.25,37,11.45,48,8.36,65.18,11.45,75.74,7.37,84.11,5.89,25.54-6.33,38.31-7.65,50.64-11.45,70-15.86,26.86-8.61,39.63-8.71,22.46-.78,38.75,0,20.7,1.61,37-1.44,15.81-3.67,21.13-6.14,1.32-10.12,0-12.11-18-12.11-19.37-13-39.64.44-39.64.44-65.61,9.25-72.22,10.13-109.48,17.17-109.48,17.17Z" transform="translate(311.06 129.61)"/><path class="cls-150" d="M1616.29,2806s93.36-12.77,96.88-13.65,31.71-10.13,31.71-10.13l-45.36-4.85s-46.24,8.81-51.52,9.69-29.7,6.17-33.57,7.05-19.38,11.89-25.49,11.89-30.22,4-44.37,0-73.16-18.94-77.12-19.82-30-8.37-41-8.81-41,.88-44.92,0-31.71,8.81-31.71,8.81l52.85,4.4s25.54,6.61,34.78,7.93,61.66,12.33,65.62,12.77,31.71,2.2,37.87,4.4,50.2,0,50.2,0Z" transform="translate(311.06 129.61)"/><path class="cls-151" d="M1183.85,2809.12l-18,14.09s-3.08,10.13-3.08,12.33,3.08,16.44,3.08,16.44a50.62,50.62,0,0,0,2.64,6c.88,1.32,6.17,5.28,11,6.61s23.78,6.6,30.83,7,27.74-1.32,34.34,0,37.88,4.85,43.16,4.41,74,7,75.74,7,47.82,6.19,48.7,5.57,21.32-4.25,23.08-4.25,37-23.78,39.64-26,7.92-17.17,7.92-17.17l-75.74-18.06-96.88-14.09Z" transform="translate(311.06 129.61)"/><path class="cls-152" d="M1677.94,2888.71l215.78-18.38s28.19-7,31.71-7.49,16.29-13.65,15.41-16.73a35.47,35.47,0,0,0-4.84-11.45c-3.52-5.72-7.49-14.53-10.57-15.85s-4.75-1.28-8.32-3.72-12.38-4.21-19-3.77-309.58,23.34-312.22,24.66-21.14,2.2-14.53,18.5S1677.94,2888.71,1677.94,2888.71Z" transform="translate(311.06 129.61)"/><path class="cls-153" d="M1543.36,2907.76c-1.49.44-249.42,147.08-250.74,147.08s-12.33,3.53-17.61,0-14.53-19.37-14.53-19.37v-19.82l156.33-123.74,45.36-19.38L1495,2862l34.5-32.58s65.52,25.1,66.45,25.54,15.46-.44,26.91,7,43.16,26.43,54.6,37.43,18.06,13.66,29.51,24.22,63,48,70,57.25,34.79,37,34.79,37-1.76,15.86,0,17.18-12.77,17.17-12.77,17.17-6.61,3.13-9.69,4.21-13.65.24-18.94,0S1543.36,2907.76,1543.36,2907.76Z" transform="translate(311.06 129.61)"/><path class="cls-154" d="M1520.29,2852c0,2.06-6.6,15.27-9.24,17s-16.74,5.72-26.87,11.45-18.93,8.37-28.18,13.65-34.79,17.17-41.39,22-96.89,56.81-98.21,58.57-11,10.13-11,10.13-.44,7.92,0,9.68,1.77-.44,7,6.17,7.49,10.13,7.93,11.45-2.65,7-2.65,7-4,3.53-7,3.53-16.29,2.2-17.62,2.64-16.73-2.2-16.73-2.2l-14.09-13.21,6.16-19.38,203.89-144.44s-10.57-5.28-11.89-5.28-145.76-19.82-275.67-26l-5.28-4v-2.64l7.93-5.29s12.77-2.64,14.53-2.64,121.1,4.85,121.1,4.85,139.6,17.61,155,21.13,22.44,9.25,22.44,9.25l19.83,10.57Z" transform="translate(311.06 129.61)"/><path class="cls-155" d="M1553.32,2846.11c1.75,3.65,210.06,137.83,210.06,137.83l-7.49,24.67s-2.2,3.08,1.32,7,8.81,7.15,14.09,9.74,14.09,3.91,16.74,3.91,7.48-1.66,11.89-3.91,9.24-1.37,11.89-7.54,4.84-4,3.52-9.24-4.84-13.66-9.69-19.38-66.93-61.65-70.46-63.41-33.47-21.58-36.55-23.34-14.09-10.57-20.25-16.74-6.61-9.24-15-13.65-11.45-7-19.37-10.13-23.34-15.85-23.34-15.85,153.24-21.14,299.89-31.27l4.84-11.89-7-2.64s-162.12,5.73-290.21,18.94l-27.07,6.11-39.42,6.22Z" transform="translate(311.06 129.61)"/><polygon class="cls-156" points="1925.49 2779.32 1911.5 2963.83 1903.13 2974.4 1899.52 2975.72 1888.6 2823.35 1925.49 2779.32"/><path class="cls-157" d="M1467.45,2651.91s9.25,80.59,9.25,86.75-2.2,8,2.2,19.2,6.6,10.31,8.81,19.55,2.64,17.62,5.72,29.51,6.49,12.33,6.49,14.09,4.34,2.2,4.34,2.2,10.93-22,12.38-26,1.43-.44,3-24.22,4.2-42.72,2.44-57.69-6.17-41-8.37-46.68-11.49-18.93-13.23-21.14-19.8-5.72-19.8-5.72l-7.26,2.46Z" transform="translate(311.06 129.61)"/><path class="cls-158" d="M1504.26,2683.61c-.7,18.06-6,144.89-3.8,151.93s7.06,11,13.23,12.33,27.2,1.76,29.67,1.76,28.46.44,33.74,0,10,7.49,11.36-3.52,1.3-39.19.48-50.2-.57-59-.48-70,1.23-26,0-33.91.53-13.65-3-17.61-34-12.58-39-10.25Z" transform="translate(311.06 129.61)"/><path class="cls-159" d="M1507.06,2638.7l-26.4,3.08s-8.37-.44-8.37,5.72,3.53,15,5.73,18.5,15,16.73,16.73,18.06,13.88,6,19.38,5.43,78.82,0,78.82,0l4.41-4.55,9.25-13.66s7-14.09,7-15.85,1.76-6.16,0-7.93-30.38-8.8-30.38-8.8Z" transform="translate(311.06 129.61)"/><path class="cls-160" d="M1516.64,2647.5l-28.93,2.65v8.36s23,18.86,23.28,19.41,23.4-.85,27.8,0,24.66-1,28.18.13,11,2.56,15,.1,10.57-8.63,12.34-11.71,6.16-12.33,6.16-12.33l-7.49-4.4Z" transform="translate(311.06 129.61)"/><path class="cls-161" d="M1507.52,2552.92s1.76,55.09,0,59.27,1.13,41,.79,42.18,7.56,15.2,11.31,15.2,38.1,1.14,43,0,23.34-1.52,23.34-1.52V2550.26l-28.63-2.28Z" transform="translate(311.06 129.61)"/><path class="cls-162" d="M1502.13,2566c1.87,62.53-6.5,58.13,1.87,62.53,1.75.92,3.36,1.71,4.9,2.38,5.83,2.56,10.59,3.53,17.56,4.23,8.81.88,11,.44,20,0s12.55-.44,20-1.77,7.93.44,12.77-2.2,9.51-2.2,9.16-4.4,1.23-7.93,0-11.89-2.11-33.47-2.55-35.23,2-17.73,2-17.73Z" transform="translate(311.06 129.61)"/><g class="cls-163"><path class="cls-164" d="M1138.83,2052.44c234.66,26.38,268,29.73,268,29.73s37.21-59.68,38.53-64.85,11.23-158.42,11.23-163.71-185.61-157.21-186.94-159.19-174.38,13.87-176.36,15.19-56.15,150.61-56.15,150.61Z" transform="translate(311.06 129.61)"/><path class="cls-165" d="M1302.64,1698.39c-.66,7.92,0,132.11,0,132.11l404.26,136.73,103.71-322.35Z" transform="translate(311.06 129.61)"/><polygon class="cls-166" points="2121.99 1831.63 2032.16 1903.63 2054.62 2028.47 2423.87 1807.85 2121.99 1831.63"/><path class="cls-167" d="M2032.88,1796.82c-2.64,2.3-234.49-13.55-234.49-13.55l65.39,600.44,275.45-48.88Z" transform="translate(311.06 129.61)"/><polygon class="cls-168" points="1591.24 2137.79 1445.26 2224.99 1518.25 2503.74 1583.98 2439 1591.24 2137.79"/></g><path class="cls-169" d="M1323.89,1738.13c-3.52-.44-65.17,26.67-67.82,27.65s-23.34,11.1-26.86,15.06-20.7,18.06-25.1,24.22-11,13.22-12.33,18.5,3.08,50.2,3.08,58.57-2.69,26.86-3.33,39.19-2.39,45.36-2.83,51.08,9.24,68.26,10.13,72.22,3.52,14.54,5.28,26,4.4,20.25,5.72,29.06,5.73,23.34,5.73,29.94,36.55,197.46,36.55,197.46,20.7,6,26.42,8.64,73.54,7.48,75.75,7.48,10.56,3.09,18,4.85,42.72,9.24,49.76,9.68,32.15-1.32,43.6,0,34.35-1.61,43.15.08,52,1.07,63.42.28,27.74-3,39.63-2.56,37,4.94,45.36,3.35,24.66-2.47,36.11-2.91,48.88-.88,57.69-4.84,19.37-10.57,29.5-12.33,34.79-4.85,42.28-5.73,10.12,0,18.05-4,17.18-14.09,22-23.34,48-321.91,48-323.23V1813.87L1877,1780.4s-26.42-14.53-33-18.93-63.85-23.79-65.17-23.35S1323.89,1738.13,1323.89,1738.13Z" transform="translate(311.06 129.61)"/><g class="cls-170"><path class="cls-171" d="M1271.27,2363.58l85.9-137.08s78.82-90.5,87.92-91.16,235.72,31.3,235.72,31.3-17.44,116.66-16.68,125.25-25,100.4-34.1,107.67S1271.27,2363.58,1271.27,2363.58Z" transform="translate(311.06 129.61)"/><path class="cls-172" d="M1952,1968.73l-59.45-5.79s-109.65,88.84-110,90.49-22.12,129.14-22.12,129.14l99.74,160.51,163.15-238.46Z" transform="translate(311.06 129.61)"/><polygon class="cls-173" points="1855.55 2069.86 1997.15 1954.49 2221.96 2094.44 2157.66 2161.24 2160.97 2481.28 1867.02 2526.2 1842.25 2074.38 1855.55 2069.86"/><polygon class="cls-174" points="1811.52 1855.08 1844.93 1911.13 1997.15 1954.49 2103.94 1859.7 1811.52 1855.08"/><polygon class="cls-175" points="1824.75 1901.64 1997.15 1954.49 1804.6 2111.37 1824.75 1901.64"/><polygon class="cls-176" points="1610.73 2037.06 1617.33 2043 1693.3 2301.94 1925.15 2161.24 1754.07 1938.31 1624.49 1970.99 1610.73 2037.06"/><path class="cls-177" d="M1170.86,1966.24l66.39-1.32s61.1,100.07,62.42,106.68,1.32,286,1.32,286l-95.78-7.92Z" transform="translate(311.06 129.61)"/><polygon class="cls-178" points="1830.68 2109.06 2157.66 2161.24 2221.96 2094.44 1997.15 1954.49 1830.68 2109.06"/><polygon class="cls-179" points="1617.33 2041.68 1500 2098.34 1434.95 1911.55 1590.91 1827 1634.95 1867.74 1617.33 2041.68"/><polygon class="cls-180" points="1730.95 1954.49 1617.33 2041.68 1634.95 1867.74 1730.95 1954.49"/><polygon class="cls-181" points="1852.49 1908.25 1730.95 1954.49 1634.95 1867.74 1852.49 1859.7 1852.49 1908.25"/><polygon class="cls-182" points="1857.56 2081.98 1852.49 1908.25 1730.95 1954.49 1857.56 2081.98"/><polygon class="cls-183" points="1491.21 2091.95 1505 2101.34 1575.77 2165.56 1580.72 2462.14 1668.9 2462.14 1835.68 2258.04 1847.25 2200.57 1702.59 2287.76 1676.83 2173.82 1618.7 2043.03 1491.21 2091.95"/><polygon class="cls-184" points="2078.73 1873.57 2137.52 2048.62 1997.15 1954.49 2078.73 1873.57"/><path class="cls-185" d="M1927.19,1801.76,1826.46,1919l-66-196.88s195.85,45.61,196.84,45.94S1927.19,1801.76,1927.19,1801.76Z" transform="translate(311.06 129.61)"/><path class="cls-186" d="M1935.12,1979.45c-3.63-4.62-108.66-60.44-108.66-60.44l110.43-127.74Z" transform="translate(311.06 129.61)"/></g><path class="cls-187" d="M1494.53,2078.53l-30.71-14.86v-79.93s33.35-40,54.49-42.6,57.8,1.32,60.44,3,12.88,5.28,33.36,26.09,14.2,88.19,14.2,92.48-6.6,8.26-6.6,8.26l-50.54,25.43H1533.5Z" transform="translate(311.06 129.61)"/><path class="cls-188" d="M1537.91,2112l-54.61-38.75s1.32-65.62,0-66.94,6.61-18.49,6.61-18.49,11.89-9.69,13.21-11,7.05-4.85,9.25-6.17,13.65-7.92,17.61-8.36,11.88-4,19.81-2.65,27.75,6.61,27.75,6.61,11.45,7.48,13.21,11,14.09,17.17,14.09,17.17v87.19l-59,38.76Z" transform="translate(311.06 129.61)"/><path class="cls-189" d="M1513.36,2009.83c-1.32,2,.66,18.17,0,20.48s6.6,7.85,7.92,9.54,4.3,3.34,6.28,6,3,19.49,3.63,22.13-1.53,24.18-1.59,26.62-15.25,16.44-18.88,22-8.26,8.85-9.25,14.14-1,429-1,429a10.19,10.19,0,0,0,1.65,6.28c2,2.64,20.81,0,20.81,0s9.9-203.27,10.23-207.16,5.62-338.46,5.62-338.46l-13.87-15.52Z" transform="translate(311.06 129.61)"/><path class="cls-190" d="M1504.44,2222.2v-82.9l17.84-21.13s10.89-18.17,11.22-21.8,1.66-38.31,1.33-41.95-1-13.61-2.65-14.57-11.5-3.92-12.52-5.91-2-7.26-3-10.23-1.34-18.83,0-19.82,4.75-11.56,18.24-12.55,20.75,4,21.74,4.62,10.57,8.26,12.22,16.85-5.94,21.13-5.94,21.13l-15.19,7.6s-1-2.31-.33,17.18,1.52,37.65,2.41,40,7.82,11.94,11.79,17.86,11.23,7.57,16.18,15.83,7.27,8.91,8.26,17.5,3.56,8.59,2.44,23.45-2.77,13.54-2.44,28.74,3.56,21.46,2.44,35.33.46,31.25,0,41.88.35,32.77.28,35.74-.28,243.74-.28,243.74.86,5-5.41,7.6-74.32,5.94-77,0S1504.44,2222.2,1504.44,2222.2Z" transform="translate(311.06 129.61)"/><path class="cls-129" d="M1239.51,3079.52c.66-1.32,10.41-11.39,14.21-16s6.77-11.89,20.47-15.68,17.84-4.46,20.81-4.13,24.94,5.94,28.57,8.09,1.82.16,7.26,5.28,5.12,3.05,8.26,7.89a131.22,131.22,0,0,1,6.94,11.6c3,5.45,3.14,4.79,5.12,10.73s3.3,6.94,4.13,13.88,1.48,8.09.82,15.19-.16,11.89-1.16,12.71-11.45,3.31-12.71,3.64-8.59.66-9.08.82-15.53-28.73-19.49-35.83S1239.51,3079.52,1239.51,3079.52Z" transform="translate(311.06 129.61)"/><path class="cls-127" d="M1263.67,3060.13c-.5,0-17.67,6.44-20,10.07s-10.57,12.06-9.25,24.94-1,21.8,6.28,31.54,7.43,12.71,14.36,16.68,21.53,15.69,25.63,17,35.47-.66,38.78-1.16,21-13.71,22.79-18.49,4.12-9.42,3.63-18.83-4-30.06-7.93-35.5-14.53-14.7-19.65-18-15.69-7.6-18-8.26S1263.67,3060.13,1263.67,3060.13Z" transform="translate(311.06 129.61)"/><path class="cls-128" d="M1284.31,3085.89c-2.48,1.16-8.09,6.61-11.23,12.05s-4.79,7.77-4.62,13.22-2,5.94,3.3,14.53,7.93,11.56,11.56,15.52.17,5.95,8.92,8.75,7.76,4.79,17.67,4,9.08,2.64,18.49-3.64,14-14,13.88-23.94-2-23.62-5.29-28.57-6.27-8.59-10.73-10.73-20.32-5.29-26.59-5.12S1284.31,3085.89,1284.31,3085.89Z" transform="translate(311.06 129.61)"/><path class="cls-130" d="M1269.28,3045.27c-1.48,5.12,0,23.78,0,23.78s4.13,4.29,7.6,4.95,10.4-.17,11.06,0,4.13-1.49,4.63-2,0-29.56,0-29.56Z" transform="translate(311.06 129.61)"/></g></svg>